<?xml version="1.0" encoding="utf-8"?>
<!-- Generator: Adobe Illustrator 26.0.2, SVG Export Plug-In . SVG Version: 6.00 Build 0)  -->
<svg version="1.1" id="Layer_1" xmlns="http://www.w3.org/2000/svg" xmlns:xlink="http://www.w3.org/1999/xlink" x="0px" y="0px"
	 viewBox="0 0 181.7 46.1" style="enable-background:new 0 0 181.7 46.1;" xml:space="preserve">
<style type="text/css">
	.st0{display:none;}
	.st1{display:inline;fill:#004A83;}
	.st2{fill:#222E49;}
</style>
<g class="st0">
	<path class="st1" d="M-6.2,34.2c0.1,0,0.1,0,0.2,0.1l2.1,0.6h0.3c0.4,0,0.7-0.3,0.7-0.7l0,0l0,0v-4c0-0.5-0.3-0.9-0.8-1h-0.1
		c-0.7-0.2-1.4-0.4-2.1-0.7h-0.3c-0.4,0-0.7,0.3-0.7,0.7l0,0l0,0v4.1C-6.9,33.7-6.6,34.1-6.2,34.2"/>
	<path class="st1" d="M-2.1,5.9c0.5,0,0.9,0.4,0.9,0.9v27.8c0,0.6,0.5,1.1,1.1,1.1h1.5c1,0,2.1-0.1,3.1-0.2
		c10.4-1.2,18.2-8.9,18.2-17.7c0-6-3.6-11.6-9.5-14.9h-0.1c-0.5-0.2-1-0.1-1.3,0.4c-0.1,0.1-0.1,0.3-0.1,0.4v4c0,0.4,0.2,0.8,0.5,1
		c0.1,0.1,0.2,0.1,0.3,0.2c2.9,2,4.7,5.3,4.8,8.9c0,5.6-4.8,10.5-11.7,11.9H5.3c-0.5,0-0.9-0.3-0.9-0.7c0,0,0,0,0-0.1l0,0V1.1
		c0-0.6-0.5-1-1.1-1C2.8,0,2.2,0,1.7,0c-1,0-2.1,0.1-3.1,0.2c-10.4,1.3-18.2,8.9-18.2,17.7c0,6,3.6,11.6,9.5,14.9l0.1,0.1
		c0.2,0,0.4,0.1,0.6,0.1c0.5-0.1,0.9-0.5,0.9-1v-4c0-0.4-0.2-0.8-0.5-1c-0.1-0.1-0.2-0.1-0.3-0.2c-2.9-2-4.7-5.3-4.8-8.9
		c0-5.6,4.8-10.5,11.7-11.9L-2.1,5.9"/>
	<path class="st1" d="M6.7,0.2C6.3,0.2,6,0.5,5.9,0.9l0,0v4c0,0.5,0.3,0.9,0.8,1h0.1c0.7,0.2,1.3,0.4,2,0.7h0.3
		c0.4,0,0.7-0.3,0.7-0.7l0,0V2c0-0.4-0.2-0.8-0.6-1l0,0C9.1,1,9,0.9,8.9,0.9L6.8,0.3L6.7,0.2"/>
	<path class="st1" d="M36.8,5.3c0-0.1-0.1-0.1-0.2-0.1h-1.4c-0.1,0-0.1,0-0.2,0.1l-6.2,13.4v0.2c0,0.1,0.1,0.1,0.2,0.1h1.6
		c0.1,0,0.1,0,0.2-0.1l5.1-11.2l2.7,6h-4.1c-0.1,0-0.2,0-0.2,0.1l-0.7,1.4v0.2c0,0.1,0.1,0.1,0.2,0.1h5.6l1.5,3.4
		c0,0.1,0.1,0.1,0.2,0.1h1.7c0.1,0,0.2,0,0.2-0.1v-0.2"/>
	<path class="st1" d="M69.4,5.3c0-0.1-0.1-0.1-0.2-0.1h-1.4c-0.1,0-0.1,0-0.2,0.1l-6.2,13.4v0.2c0,0.1,0.1,0.1,0.2,0.1h1.6
		c0.1,0,0.1,0,0.2-0.1l5-11.2l2.7,6h-4c-0.1,0-0.2,0-0.2,0.1l-0.7,1.4v0.2c0,0.1,0.1,0.1,0.2,0.1H72l1.5,3.4c0,0.1,0.1,0.1,0.2,0.1
		h1.7c0.1,0,0.2,0,0.2-0.1v-0.2"/>
	<path class="st1" d="M57.6,5.2h-1.5c-0.1,0-0.2,0.1-0.2,0.2l0,0v10L47.8,5.3c0-0.1-0.1-0.1-0.2-0.1h-1.4c-0.1,0-0.2,0.1-0.2,0.2
		l0,0v13.4c0,0.1,0.1,0.2,0.2,0.2h1.5c0.1,0,0.2-0.1,0.2-0.2l0,0V8.5L56.2,19c0,0.1,0.1,0.1,0.2,0.1h1.2c0.1,0,0.2-0.1,0.2-0.2l0,0
		V5.5C57.9,5.3,57.8,5.2,57.6,5.2L57.6,5.2"/>
	<path class="st1" d="M80.9,17.2V7.1h3c3.2,0,5.4,2.1,5.4,5.1s-2.2,5-5.4,5 M79.2,19h4.7c4.3,0,7.5-2.9,7.5-7s-3.1-6.9-7.5-6.9h-4.7
		c-0.1,0-0.2,0.1-0.2,0.2v13.4C78.9,18.9,79,19.1,79.2,19"/>
	<path class="st1" d="M101.8,17.4c-2.8,0-5.1-2.3-5.1-5.1v-0.2c-0.1-2.8,2.1-5.2,4.9-5.3c2.8-0.1,5.2,2.1,5.3,4.9v0.5l0,0
		c0.1,2.8-2,5.1-4.8,5.2H102C101.9,17.3,101.9,17.3,101.8,17.4 M101.8,4.9c-3.9,0-7.1,3.1-7.2,7v0.2l0,0c-0.1,3.9,3,7,6.9,7.1l0,0
		h0.3c3.9,0,7.1-3.1,7.2-7V12c0.1-3.9-3-7-6.9-7.1l0,0H101.8"/>
	<path class="st1" d="M113.1,19.1h9.2c0.1,0,0.2-0.1,0.2-0.2l0,0v-1.4c0-0.1-0.1-0.2-0.2-0.2h-7.4V5.5c0-0.1-0.1-0.2-0.2-0.2h-1.5
		c-0.1,0-0.2,0.1-0.2,0.2l0,0v13.4C112.8,18.9,112.9,19.1,113.1,19.1L113.1,19.1"/>
	<path class="st1" d="M137,5.2h-1.6c-0.1,0-0.2,0.1-0.2,0.2l0,0v7.8c0,2.7-1.4,4.2-3.9,4.2s-3.9-1.6-3.9-4.3V5.5
		c0-0.1-0.1-0.2-0.2-0.2h-1.5c-0.1,0-0.2,0.1-0.2,0.2l0,0v7.8c0,3.7,2.3,6,5.9,6s5.9-2.3,5.9-6.1V5.5C137.2,5.3,137.1,5.2,137,5.2
		L137,5.2"/>
	<path class="st1" d="M38.5,23.2c0.1,0,0.2-0.1,0.2-0.2l0,0v-0.4c0-0.1-0.1-0.2-0.2-0.2h-0.3c-0.1,0-0.2,0.1-0.2,0.2l0,0V23
		c0,0.1,0.1,0.2,0.2,0.2l0,0"/>
	<path class="st1" d="M36.2,23.2c0.1,0,0.2-0.1,0.2-0.2l0,0v-0.4c0-0.1-0.1-0.2-0.2-0.2h-0.3c-0.1,0-0.2,0.1-0.2,0.2l0,0V23
		c0,0.1,0.1,0.2,0.2,0.2l0,0"/>
	<path class="st1" d="M39.7,23.9h-0.2c-0.1,0-0.2,0.1-0.2,0.2v3.4c0,1.5-0.7,2.4-2.1,2.4s-2.1-0.9-2.1-2.4v-3.4
		c0-0.1-0.1-0.2-0.2-0.2h-0.2c-0.1,0-0.2,0.1-0.2,0.2v3.4c0,1.9,1,3,2.8,3s2.8-1.1,2.8-3v-3.4C39.9,24,39.8,23.9,39.7,23.9"/>
	<path class="st1" d="M49.7,23.9h-0.2c-0.1,0-0.2,0.1-0.2,0.2v5.1L45,24c0-0.1-0.1-0.1-0.2-0.1h-0.2c-0.1,0-0.2,0.1-0.2,0.2v6.1
		c0,0.1,0.1,0.2,0.2,0.2h0.2c0.1,0,0.2-0.1,0.2-0.2l0,0v-5.1l4.3,5.3c0,0.1,0.1,0.1,0.2,0.1h0.2c0.1,0,0.2-0.1,0.2-0.2l0,0v-6.1
		C50,24,49.9,23.9,49.7,23.9"/>
	<path class="st1" d="M55.1,22.7h-0.3c-0.1,0-0.2,0.1-0.2,0.2v0.4c0,0.1,0.1,0.2,0.2,0.2h0.3c0.1,0,0.2-0.1,0.2-0.2l0,0v-0.4
		C55.4,22.8,55.3,22.7,55.1,22.7"/>
	<path class="st1" d="M55.1,24.4h-0.2c-0.1,0-0.2,0.1-0.2,0.2v5.7c0,0.1,0.1,0.2,0.2,0.2h0.2c0.1,0,0.2-0.1,0.2-0.2l0,0v-5.7
		C55.3,24.5,55.2,24.3,55.1,24.4"/>
	<path class="st1" d="M65.4,23.9h-0.2c-0.1,0-0.1,0-0.2,0.1l-2.5,5.4L60,24c0-0.1-0.1-0.1-0.2-0.1h-0.2c-0.1,0-0.2,0-0.2,0.1v0.2
		l2.8,6.2c0,0.1,0.1,0.1,0.2,0.1h0.2c0.1,0,0.2,0,0.2-0.1l2.8-6.2c0-0.1,0-0.3-0.1-0.3L65.4,23.9"/>
	<path class="st1" d="M74.2,29.8h-4v-2.3h3.5c0.1,0,0.2-0.1,0.2-0.2l0,0v-0.2c0-0.1-0.1-0.2-0.2-0.2h-3.5v-2.3h3.9
		c0.1,0,0.2-0.1,0.2-0.2v-0.2c0-0.1-0.1-0.2-0.2-0.2h-4.3c-0.1,0-0.2,0.1-0.2,0.2v6.1c0,0.1,0.1,0.2,0.2,0.2h4.4
		c0.1,0,0.2-0.1,0.2-0.2l0,0v-0.2C74.5,29.9,74.3,29.8,74.2,29.8L74.2,29.8"/>
	<path class="st1" d="M82.1,27.7c1-0.1,1.8-0.9,1.8-1.9c0-0.5-0.2-0.9-0.5-1.3c-0.5-0.5-1.2-0.7-1.9-0.7h-2.6
		c-0.1,0-0.2,0.1-0.2,0.2v6.1c0,0.1,0.1,0.2,0.2,0.2h0.2c0.1,0,0.2-0.1,0.2-0.2v-5.7h2.1c1.2,0,1.8,0.5,1.8,1.3S82.5,27,81.3,27l0,0
		c-0.1,0-0.1,0-0.2,0.1v0.2l2.2,2.8c0,0.1,0.1,0.1,0.2,0.1h0.2c0.1,0,0.2,0,0.2-0.1v-0.2"/>
	<path class="st1" d="M90.7,26.8c-1.5-0.3-1.8-0.7-1.8-1.2c0.1-0.8,0.8-1.3,1.6-1.2c0.7,0,1.3,0.2,1.9,0.6c0.1,0.1,0.2,0.1,0.3,0
		l0,0l0.1-0.2v-0.2c0-0.1,0-0.1-0.1-0.2c-0.7-0.5-1.5-0.8-2.3-0.8c-1.1-0.1-2.1,0.7-2.2,1.8l0,0c0,1.2,1.1,1.6,2.3,1.8
		c1.6,0.3,1.8,0.7,1.8,1.2c-0.2,0.8-0.9,1.3-1.7,1.2c-0.8,0-1.6-0.3-2.2-0.9c-0.1-0.1-0.2-0.1-0.3,0l0,0l-0.2,0.1
		c-0.1,0.1-0.1,0.1-0.1,0.2s0,0.1,0.1,0.2c0.7,0.7,1.6,1,2.6,1c1.4,0,2.4-0.8,2.4-1.9S92.3,27.1,90.7,26.8"/>
	<path class="st1" d="M97.8,22.7h-0.3c-0.1,0-0.2,0.1-0.2,0.2l0,0v0.4c0,0.1,0.1,0.2,0.2,0.2h0.3c0.1,0,0.2-0.1,0.2-0.2v-0.4
		C98.1,22.8,98,22.7,97.8,22.7L97.8,22.7"/>
	<path class="st1" d="M97.8,24.4h-0.2c-0.1,0-0.2,0.1-0.2,0.2l0,0v5.7c0,0.1,0.1,0.2,0.2,0.2h0.2c0.1,0,0.2-0.1,0.2-0.2v-5.7
		C98,24.5,97.9,24.4,97.8,24.4L97.8,24.4"/>
	<path class="st1" d="M106.9,23.9h-4.7c-0.1,0-0.2,0.1-0.2,0.2l0,0v0.2c0,0.1,0.1,0.2,0.2,0.2h2v5.7c0,0.1,0.1,0.2,0.2,0.2h0.2
		c0.1,0,0.2-0.1,0.2-0.2l0,0v-5.7h2c0.1,0,0.2-0.1,0.2-0.2l0,0v-0.2C107.1,24,107,23.9,106.9,23.9L106.9,23.9"/>
	<path class="st1" d="M115.7,29.8h-4v-2.3h3.5c0.1,0,0.2-0.1,0.2-0.2v-0.2c0-0.1-0.1-0.2-0.2-0.2h-3.5v-2.3h3.9
		c0.1,0,0.2-0.1,0.2-0.2l0,0v-0.2c0-0.1-0.1-0.2-0.2-0.2h-4.3c-0.1,0-0.2,0.1-0.2,0.2l0,0v6.1c0,0.1,0.1,0.2,0.2,0.2h4.4
		c0.1,0,0.2-0.1,0.2-0.2l0,0v-0.2C115.9,29.9,115.8,29.8,115.7,29.8L115.7,29.8"/>
	<path class="st1" d="M122.4,26.8c-1.5-0.3-1.8-0.7-1.8-1.2c0.1-0.8,0.8-1.3,1.6-1.2c0.7,0,1.3,0.2,1.9,0.6c0.1,0.1,0.2,0.1,0.3,0
		l0,0l0.1-0.2c0.1-0.1,0.1-0.2,0-0.3l0,0l0,0c-0.7-0.5-1.5-0.8-2.3-0.8c-1.1-0.1-2.1,0.7-2.3,1.8l0,0c0,1.2,1.1,1.6,2.3,1.8
		c1.6,0.3,1.9,0.7,1.9,1.2c-0.2,0.8-0.9,1.3-1.7,1.2c-0.8,0-1.6-0.3-2.2-0.9c-0.1-0.1-0.2-0.1-0.3,0l0,0l-0.1,0.1
		c-0.1,0.1-0.1,0.1-0.1,0.2s0,0.1,0.1,0.2c0.7,0.7,1.6,1,2.6,1c1.4,0,2.4-0.8,2.4-1.9S124,27.1,122.4,26.8"/>
	<path class="st1" d="M129.6,22.7h-0.3c-0.1,0-0.2,0.1-0.2,0.2l0,0v0.4c0,0.1,0.1,0.2,0.2,0.2h0.3c0.1,0,0.2-0.1,0.2-0.2v-0.4
		C129.8,22.8,129.7,22.7,129.6,22.7L129.6,22.7"/>
	<path class="st1" d="M129.5,24.4h-0.2c-0.1,0-0.2,0.1-0.2,0.2l0,0v5.7c0,0.1,0.1,0.2,0.2,0.2h0.2c0.1,0,0.2-0.1,0.2-0.2l0,0v-5.7
		C129.7,24.5,129.6,24.3,129.5,24.4L129.5,24.4"/>
</g>
<text transform="matrix(1 0 0 1 79.727 71.9659)" style="display:none;fill:#222E49; font-family:'GillSansMTPro-Light'; font-size:7.3784px;">ANADOLU ÜNİVERSİTESİ</text>
<text transform="matrix(1 0 0 1 79.727 81.4815)" style="display:none;fill:#222E49; font-family:'GillSansMTPro-Bold'; font-size:7.3784px;">AÇIKÖĞRETİMLE</text>
<g>
	<path class="st2" d="M9.1,27.8c-0.2-0.1-0.4-0.4-0.4-0.7l0-2.6c0-0.3,0.2-0.5,0.5-0.5c0.1,0,0.1,0,0.1,0c0,0,0,0,0.1,0
		c0.4,0.2,0.9,0.3,1.3,0.5l0,0c0.3,0.1,0.5,0.4,0.5,0.7v2.5c0,0.3-0.2,0.5-0.5,0.5l0,0c-0.1,0-0.1,0-0.2,0c-0.4-0.1-0.9-0.2-1.3-0.4
		C9.2,27.8,9.2,27.8,9.1,27.8L9.1,27.8z M11.8,9.4c0.4,0,0.6,0.3,0.6,0.5l0,17.9c0,0.1,0,0.7,0.7,0.7c0.4,0,0.6,0,0.9,0
		c0.7,0,1.3,0,2-0.1c6.6-0.8,11.6-5.7,11.6-11.4c0-3.9-2.3-7.5-6.1-9.6c0,0,0,0-0.1,0c-0.1,0-0.2-0.1-0.3-0.1
		c-0.3,0-0.6,0.3-0.6,0.6V8v2.5c0,0.3,0.1,0.5,0.3,0.7c0,0,0.1,0.1,0.2,0.1c2,1.5,3.1,3.5,3.1,5.7c0,3.6-3.1,6.8-7.4,7.7
		c-0.1,0-0.1,0-0.2,0c-0.4,0-0.6-0.3-0.6-0.5l0-17.9c0-0.1,0-0.7-0.7-0.7c-0.3,0-0.6,0-0.9,0c-0.7,0-1.3,0-2,0.1
		C5.6,6.5,0.6,11.4,0.6,17.1c0,3.9,2.3,7.5,6.1,9.6c0,0,0,0,0.1,0c0.1,0.1,0.3,0.1,0.3,0.1c0.4,0,0.6-0.3,0.6-0.6v-0.1v-2.4l0-0.1
		l0,0c0-0.3-0.1-0.5-0.3-0.7c-0.1,0-0.1-0.1-0.2-0.1c-2-1.5-3.1-3.5-3.1-5.7c0-3.6,3.1-6.8,7.4-7.7C11.6,9.4,11.7,9.4,11.8,9.4
		 M17.3,5.9c-0.3,0-0.5,0.2-0.5,0.5v2.5c0,0.3,0.2,0.6,0.5,0.7l0.1,0c0.4,0.1,0.9,0.3,1.3,0.5c0,0,0,0,0.1,0c0,0,0.1,0,0.1,0
		c0.3,0,0.5-0.2,0.5-0.5l0-2.6c0-0.3-0.1-0.5-0.4-0.7l0,0c-0.1,0-0.1,0-0.2-0.1c-0.4-0.1-0.9-0.3-1.3-0.4
		C17.4,5.9,17.4,5.9,17.3,5.9L17.3,5.9z"/>
	<g>
		<g>
			<path class="st2" d="M36.7,14.5h-0.4l-0.8-1.7H33l-0.8,1.7h-0.4l2.3-5.1h0.2L36.7,14.5z M34.3,10.1l-1.1,2.4h2.2L34.3,10.1z"/>
			<path class="st2" d="M42,14.5h-0.3l-3.8-4.4v4.4h-0.4v-5h0.4l3.8,4.4V9.5H42V14.5z"/>
			<path class="st2" d="M47.6,14.5h-0.4l-0.8-1.7H44l-0.8,1.7h-0.4l2.3-5.1h0.2L47.6,14.5z M45.2,10.1l-1.1,2.4h2.2L45.2,10.1z"/>
			<path class="st2" d="M49.9,9.5c0.7,0,1.2,0,1.8,0.3c0.8,0.5,1.2,1.3,1.2,2.2c0,0.8-0.3,1.8-1.2,2.2c-0.7,0.3-1.1,0.3-1.8,0.3
				h-1.5v-5H49.9z M48.8,9.8v4.4H50c0.6,0,1,0,1.5-0.3c0.6-0.4,1-1.1,1-1.9c0-0.6-0.2-1.3-1-1.8C51,9.8,50.6,9.8,50,9.8H48.8z"/>
			<path class="st2" d="M56.3,14.6c-1.5,0-2.7-1.1-2.7-2.6c0-1.4,1.1-2.6,2.7-2.6c1.6,0,2.7,1.2,2.7,2.6
				C59,13.5,57.8,14.6,56.3,14.6z M56.3,9.8c-1.3,0-2.2,1-2.2,2.2c0,1.2,0.9,2.2,2.2,2.2c1.2,0,2.2-0.9,2.2-2.2
				C58.5,10.8,57.6,9.8,56.3,9.8z"/>
			<path class="st2" d="M60.4,14.2h2.5v0.3H60v-5h0.4V14.2z"/>
			<path class="st2" d="M67.7,12c0,0.7,0,1.2-0.4,1.7c-0.3,0.5-0.9,0.9-1.7,0.9c-0.6,0-1.4-0.3-1.8-0.9c-0.4-0.6-0.4-1-0.4-1.7V9.5
				h0.4v2.6c0,0.7,0.1,1.1,0.3,1.3c0.2,0.4,0.7,0.8,1.4,0.8c0.6,0,1.2-0.3,1.4-0.8c0.2-0.4,0.3-0.8,0.3-1.3V9.5h0.4V12z"/>
			<path class="st2" d="M75,12c0,0.7,0,1.2-0.4,1.7c-0.3,0.5-0.9,0.9-1.7,0.9c-0.6,0-1.4-0.3-1.8-0.9c-0.4-0.6-0.4-1-0.4-1.7V9.5
				h0.4v2.6c0,0.7,0.1,1.1,0.3,1.3c0.2,0.4,0.7,0.8,1.4,0.8c0.6,0,1.2-0.3,1.4-0.8c0.2-0.4,0.3-0.8,0.3-1.3V9.5H75V12z M72.5,8.6
				c0,0.2-0.1,0.3-0.3,0.3s-0.3-0.1-0.3-0.3s0.1-0.3,0.3-0.3S72.5,8.5,72.5,8.6z M73.9,8.6c0,0.2-0.1,0.3-0.3,0.3
				c-0.2,0-0.3-0.1-0.3-0.3c0-0.2,0.1-0.3,0.3-0.3C73.8,8.3,73.9,8.5,73.9,8.6z"/>
			<path class="st2" d="M80.7,14.5h-0.3l-3.8-4.4v4.4h-0.4v-5h0.4l3.8,4.4V9.5h0.4V14.5z"/>
			<path class="st2" d="M82.6,8.6c0,0.2-0.1,0.3-0.3,0.3c-0.2,0-0.3-0.1-0.3-0.3c0-0.2,0.1-0.3,0.3-0.3C82.4,8.3,82.6,8.5,82.6,8.6z
				 M82.5,14.5h-0.4v-5h0.4V14.5z"/>
			<path class="st2" d="M85.5,14.6h-0.1l-2.1-5.1h0.4l1.8,4.3l1.8-4.3h0.4L85.5,14.6z"/>
			<path class="st2" d="M91.1,9.8h-2.4v2H91v0.3h-2.3v2.1h2.4v0.3h-2.8v-5h2.7V9.8z"/>
			<path class="st2" d="M93.2,9.5c0.6,0,0.9,0,1.2,0.1c0.4,0.2,0.8,0.6,0.8,1.2c0,0.6-0.4,1-1,1.2c0.3,0.2,0.4,0.4,1.6,2.2l0.2,0.3
				h-0.5l-1-1.5c-0.2-0.2-0.4-0.6-0.6-0.7c-0.2-0.2-0.5-0.2-0.8-0.2h-0.5v2.4h-0.4v-5H93.2z M92.6,9.8v2h0.5c0.6,0,0.9,0,1.1-0.2
				c0.3-0.1,0.5-0.5,0.5-0.8s-0.2-0.7-0.5-0.8c-0.2-0.1-0.4-0.2-1-0.2H92.6z"/>
			<path class="st2" d="M99,10.2c-0.4-0.2-0.7-0.4-1.1-0.4c-0.7,0-1.1,0.5-1.1,1c0,0.6,0.6,0.8,1.1,1c0.6,0.2,1.3,0.5,1.3,1.4
				s-0.8,1.4-1.5,1.4c-0.5,0-0.9-0.2-1.3-0.4v-0.5c0.4,0.3,0.8,0.5,1.3,0.5c0.7,0,1.1-0.5,1.1-1c0-0.7-0.6-0.9-1-1.1
				c-0.7-0.2-0.8-0.3-0.9-0.4c-0.3-0.2-0.5-0.6-0.5-1c0-0.7,0.6-1.3,1.4-1.3c0.4,0,0.8,0.1,1.2,0.3V10.2z"/>
			<path class="st2" d="M100.7,8.6c0,0.2-0.1,0.3-0.3,0.3c-0.2,0-0.3-0.1-0.3-0.3c0-0.2,0.1-0.3,0.3-0.3
				C100.6,8.3,100.7,8.5,100.7,8.6z M100.6,14.5h-0.4v-5h0.4V14.5z"/>
			<path class="st2" d="M105.5,9.8h-1.9v4.7h-0.4V9.8h-1.9V9.5h4.2V9.8z"/>
			<path class="st2" d="M109,9.8h-2.4v2h2.3v0.3h-2.3v2.1h2.4v0.3h-2.8v-5h2.7V9.8z"/>
			<path class="st2" d="M112.5,10.2c-0.4-0.2-0.7-0.4-1.1-0.4c-0.7,0-1.1,0.5-1.1,1c0,0.6,0.6,0.8,1.1,1c0.6,0.2,1.3,0.5,1.3,1.4
				s-0.8,1.4-1.5,1.4c-0.5,0-0.9-0.2-1.3-0.4v-0.5c0.4,0.3,0.8,0.5,1.3,0.5c0.7,0,1.1-0.5,1.1-1c0-0.7-0.6-0.9-1-1.1
				c-0.7-0.2-0.8-0.3-0.9-0.4c-0.3-0.2-0.5-0.6-0.5-1c0-0.7,0.6-1.3,1.4-1.3c0.4,0,0.8,0.1,1.2,0.3V10.2z"/>
			<path class="st2" d="M114.2,8.6c0,0.2-0.1,0.3-0.3,0.3c-0.2,0-0.3-0.1-0.3-0.3c0-0.2,0.1-0.3,0.3-0.3
				C114.1,8.3,114.2,8.5,114.2,8.6z M114.1,14.5h-0.4v-5h0.4V14.5z"/>
		</g>
		<g>
			<path class="st2" d="M37.6,24h-1.4l-0.4-1h-2.3l-0.4,1h-1.3l2-5h1.5L37.6,24z M34.6,20.2l-0.7,1.9h1.6L34.6,20.2z"/>
			<path class="st2" d="M42.5,20.5c-0.4-0.3-1-0.5-1.7-0.5c-1,0-1.8,0.6-1.8,1.5c0,1.1,1,1.5,1.8,1.5c0.7,0,1.3-0.3,1.8-0.6v1.2
				c-0.7,0.4-1.3,0.5-1.7,0.5l-0.1,0.1c0.4,0.1,0.7,0.4,0.7,0.6c0,0.4-0.3,0.6-0.5,0.6c-0.2,0.1-0.4,0.1-0.6,0.1
				c-0.5,0-0.8-0.1-0.9-0.1V25c0.1,0,0.2,0,0.3,0c0.1,0,0.5,0,0.5-0.3c0-0.2-0.2-0.2-0.5-0.2l0.4-0.4c-0.3,0-0.7-0.1-1.2-0.3
				c-0.8-0.4-1.4-1.2-1.4-2.2c0-1.3,1.1-2.6,3.1-2.6c0.5,0,1.2,0.1,1.8,0.4V20.5z"/>
			<path class="st2" d="M45,24h-1.3v-5H45V24z"/>
			<path class="st2" d="M48.9,21.4l2.2,2.7h-1.6l-2-2.4V24h-1.3v-5h1.3v2.3l1.6-2.3h1.4L48.9,21.4z"/>
			<path class="st2" d="M53.9,24.1c-1.7,0-2.9-1.3-2.9-2.6c0-1.2,1-2.6,2.9-2.6c1.8,0,2.9,1.3,2.9,2.6
				C56.9,22.7,55.9,24.1,53.9,24.1z M53.5,18c0,0.3-0.3,0.6-0.6,0.6c-0.3,0-0.6-0.3-0.6-0.6s0.3-0.6,0.6-0.6
				C53.2,17.4,53.5,17.7,53.5,18z M54,20c-0.9,0-1.6,0.5-1.6,1.5c0,1.2,1,1.5,1.6,1.5c0.8,0,1.6-0.5,1.6-1.5
				C55.6,20.6,54.9,20,54,20z M55.6,18c0,0.3-0.3,0.6-0.6,0.6c-0.3,0-0.6-0.3-0.6-0.6s0.3-0.6,0.6-0.6C55.3,17.4,55.6,17.7,55.6,18z
				"/>
			<path class="st2" d="M62.5,20.4c-0.6-0.3-1.2-0.5-1.9-0.5c-0.6,0-0.9,0.1-1.2,0.3c-0.4,0.2-0.7,0.7-0.7,1.3c0,1,0.8,1.5,1.7,1.5
				c0.3,0,0.6-0.1,0.9-0.2v-0.6h-0.7v-0.9h2v2.1c-0.5,0.4-1.3,0.7-2.2,0.7c-1.6,0-3-1-3-2.6c0-1.6,1.3-2.6,3-2.6c1,0,1.7,0.3,2,0.4
				V20.4z M59.7,17.3c0.1,0.4,0.4,0.5,0.7,0.5c0.3,0,0.6-0.1,0.8-0.5H62c-0.1,0.6-0.6,1.4-1.6,1.4c-1,0-1.5-0.8-1.6-1.4H59.7z"/>
			<path class="st2" d="M65.8,19c0.5,0,0.9,0,1.3,0.3c0.3,0.2,0.7,0.6,0.7,1.2c0,0.8-0.6,1.1-0.9,1.2c0.4,0.2,0.6,0.7,0.7,0.9
				c0.1,0.3,0.4,0.8,0.5,1l0.2,0.4H67c-0.1-0.2-0.5-1.2-0.6-1.4C66,22,65.7,22,65.4,22h-0.2V24h-1.3v-5H65.8z M65.2,19.9v1.2h0.5
				c0.3,0,0.4,0,0.5-0.1c0.2-0.1,0.3-0.3,0.3-0.5c0-0.6-0.6-0.6-0.7-0.6H65.2z"/>
			<path class="st2" d="M72.8,24h-3.7v-5h3.7v0.9h-2.4v1h2.3v0.9h-2.3v1.2h2.4V24z"/>
			<path class="st2" d="M78.4,20h-1.8V24h-1.3V20h-1.8V19h4.9V20z"/>
			<path class="st2" d="M80.6,24h-1.3v-5h1.3V24z M80.6,18c0,0.3-0.3,0.6-0.6,0.6c-0.3,0-0.6-0.3-0.6-0.6s0.3-0.6,0.6-0.6
				C80.3,17.4,80.6,17.7,80.6,18z"/>
			<path class="st2" d="M87.4,24h-1.3V21l-1.4,1.6h-0.2L83.2,21V24h-1.3v-5h1.1l1.6,1.9l1.6-1.9h1.1V24z"/>
			<path class="st2" d="M94.2,20.4c-0.3-0.2-1-0.5-1.6-0.5c-0.7,0-0.8,0.4-0.8,0.4c0,0.3,0.5,0.5,1.2,0.7c0.6,0.2,1.4,0.6,1.4,1.6
				c0,1.2-1.2,1.5-2,1.5c-0.8,0-1.7-0.4-1.8-0.5v-1.1c0.4,0.3,1,0.6,1.8,0.6c0.2,0,0.8,0,0.8-0.5c0-0.3-0.3-0.4-1-0.7
				c-0.7-0.3-1.6-0.6-1.6-1.7c0-0.8,0.6-1.4,1.9-1.4c0.4,0,0.9,0,1.7,0.4V20.4z"/>
			<path class="st2" d="M96.7,24h-1.3v-5h1.3V24z M96.7,18c0,0.3-0.3,0.6-0.6,0.6c-0.3,0-0.6-0.3-0.6-0.6s0.3-0.6,0.6-0.6
				C96.4,17.4,96.7,17.7,96.7,18z"/>
			<path class="st2" d="M101.4,20.4c-0.3-0.2-1-0.5-1.6-0.5c-0.7,0-0.8,0.4-0.8,0.4c0,0.3,0.5,0.5,1.2,0.7c0.6,0.2,1.4,0.6,1.4,1.6
				c0,1.2-1.2,1.5-2,1.5c-0.8,0-1.7-0.4-1.8-0.5v-1.1c0.4,0.3,1,0.6,1.8,0.6c0.2,0,0.8,0,0.8-0.5c0-0.3-0.3-0.4-1-0.7
				c-0.7-0.3-1.6-0.6-1.6-1.7c0-0.8,0.6-1.4,1.9-1.4c0.4,0,0.9,0,1.7,0.4V20.4z"/>
			<path class="st2" d="M107.2,20h-1.8V24h-1.3V20h-1.8V19h4.9V20z"/>
			<path class="st2" d="M111.8,24h-3.7v-5h3.7v0.9h-2.4v1h2.3v0.9h-2.3v1.2h2.4V24z"/>
			<path class="st2" d="M118.3,24H117V21l-1.4,1.6h-0.2l-1.4-1.6V24h-1.3v-5h1.1l1.6,1.9l1.6-1.9h1.1V24z"/>
			<path class="st2" d="M120.9,24h-1.3v-5h1.3V24z M120.8,18c0,0.3-0.3,0.6-0.6,0.6c-0.3,0-0.6-0.3-0.6-0.6s0.3-0.6,0.6-0.6
				C120.6,17.4,120.8,17.7,120.8,18z"/>
		</g>
	</g>
	<g>
		<path class="st2" d="M131.7,29.5c0,0.1-7.2,2.6-7.5,2.6c-0.4,0.1-0.8-0.1-1-0.3c-0.2-0.2-0.3-0.4-0.4-0.6
			c-0.1-0.7,0.2-1.2,0.5-1.8c0.3-0.6,5.7-10.1,5.9-10.6c0.4-0.7,1.7-0.4,2.9-0.2c0.6,0.1,0.7-0.2,0.7-0.2l-6.4,10.7
			c0.1,0,6-2.1,6-2.1c0,0,2.5-7.7,3.2-9.9c0.1-0.2,0.1-0.4,0.2-0.7c0.7-1.8,3.5-1.3,3.5-1.3s-3.2,10.4-3.4,11.1l0.6-0.1
			c1.3-0.1,2.1,0.9,2.1,0.9c-0.6,0.2-1.8,0.5-3.5,1.1c-0.1,0-4.2,12.2-4.3,12.2c0,0,0,0-0.2-1.2C129.9,36.2,131,32.4,131.7,29.5z"/>
		<path class="st2" d="M158.2,36.4c-0.3-0.1-0.5-0.2-0.8-0.4c-0.5-0.5-0.5-1.3-0.5-1.9c0-0.1,0-0.3,0-0.3c0.5,0.8,1,1.4,2.1,1.2
			c1.1-0.2,1.6-0.8,2.4-1.6c0.9-1,1.2-1.7,1.8-2.9c0.1-0.1,0.1-0.3,0.2-0.4c0.1-0.2,0.1-0.2,0.1-0.2c-0.3,0.3-0.4,0.5-0.6,0.6
			c-0.9,1-2.6,1.9-3.8,0.9c-0.5-0.5-0.8-1.1-0.8-1.8c0-1.3,0.3-2.6,0.7-3.8c0.4-1.2,0.9-2.5,1.4-3.6c0.1-0.2,0.2-0.4,0.3-0.6
			c0.1-0.1,0.2-0.2,0.3-0.4c0.5-0.4,1.3-0.5,1.9-0.5c-0.1,0-2,6.5-2.2,7.2c-0.1,0.5-0.3,1.1-0.3,1.7c0,0.3,0.1,0.5,0.4,0.6
			c0.2,0.1,0.5,0.1,0.7,0c0.6-0.3,1-0.9,1.4-1.4c0.5-0.7,0.8-1.4,1.2-2.1c0.6-1.1,1.1-2.3,1.5-3.4c0.2-0.6,0.4-1.1,0.6-1.7
			c0.1-0.3,0.2-1,0.5-1.1c0,0,0,0,0.1,0c1.5-0.1,2.4-0.7,2.4-0.7c-0.8,2.3-3.8,11.1-4.5,12.5c-0.6,1.2-1.3,2.3-2.3,3.1
			c-1,0.9-1.8,1.2-3.1,1.3C158.9,36.5,158.5,36.5,158.2,36.4z"/>
		<path class="st2" d="M169,28c-0.1-0.3-0.1-0.6-0.1-0.8c0-1,0.3-2,0.6-3c0.3-1.2,0.7-2.4,1.3-3.5c0.2-0.3,0.4-0.9,0.7-1
			c0.1,0,0.1,0,0.1,0c0,0,1.9-0.3,1.9-0.3c0,0-1.8,5.9-2.3,7.8c-0.2,0.8-0.4,1.5-0.6,2.3c0,0-0.1,0.2-0.1,0.2
			C169.7,29.5,169.2,28.8,169,28z"/>
		<path class="st2" d="M175.9,28.5c-0.8,0-1.7-0.3-2.1-1.1c-0.8-1.5-0.1-3.5,0.4-5c0.4-1.4,1-2.8,1.5-4.2c0.6-1.5,1.1-3.1,1.7-4.6
			c0.3-0.8,0.5-1.5,0.8-2.3c0.1-0.3,0.3-0.7,0.3-1c0,0,0,0,0-0.1c0.7-0.1,2.3-0.8,2.6,0c0.2,0.6-4,11.4-4.4,12.3
			c-0.3,0.9-0.7,1.7-0.8,2.7c0,0.3-0.1,0.6,0,0.8c0.1,0.4,0.5,0.6,0.9,0.7c0.8,0.1,1.6-0.5,2.1-1c0.2-0.2,0.8-0.7,0.9-1
			c-0.3,1.3-1.2,2.7-2.4,3.4C176.9,28.3,176.4,28.4,175.9,28.5z"/>
		<path class="st2" d="M151.6,32c0.1-0.6,0.4-1.2,0.8-1.6c0.4-0.4,1.1-0.6,1.5-0.2c0.3,0.3,0.3,0.7,0.2,1c-0.1,0.4-0.3,0.9-0.5,1.2
			c-0.2,0.3-0.5,0.6-0.8,0.7s-0.8,0.1-1-0.2C151.5,32.8,151.5,32.4,151.6,32C151.5,32,151.6,32,151.6,32z"/>
		<g>
			<path class="st2" d="M154,16.6c0,0,0-0.1,0-0.1c0,0,0,0,0,0c-0.2-0.6-0.6-1-1-1.3c-0.1-0.1-0.3-0.2-0.4-0.2c0.5,1.7,0,5.2-1.5,9
				c-1.9,4.9-4.6,8.5-6.1,7.9c-1.5-0.6-1.2-5,0.7-10c1.3-3.4,3-6.2,4.5-7.3c0.7-0.6,1.4-1.1,2.2-1.3c0.1,0,0.2,0,0.2-0.1
				c-0.9-0.7-1.9-1-3-0.7c-1,0.2-2,0.7-2.9,1.4c-1,0.7-1.9,1.6-2.6,2.6c-1.5,1.9-2.8,4.3-3.8,6.7c-1.1,2.8-1.6,5.2-1.6,7.3
				c0,2.1,0.7,3.6,1.9,4.4c0.9,0.5,2.1,0.6,3.8,0.2c1.7-0.4,3.2-1.4,4.5-2.8c1.4-1.5,2.5-3.2,3.4-5.1c0.9-1.9,1.5-3.6,1.7-5
				c0.2-1.4,0.4-2.5,0.4-3.2C154.3,18,154.2,17.3,154,16.6z"/>
		</g>
	</g>
</g>
<g class="st0">
	
		<text transform="matrix(1 0 0 1 79.452 57.4329)" style="display:inline;fill:#222E49; font-family:'GillSansMTPro-Light'; font-size:7.3801px;">ANADOLU ÜNİVERSİTESİ</text>
	
		<text transform="matrix(1 0 0 1 79.452 66.9509)" style="display:inline;fill:#222E49; font-family:'GillSansMTPro-Bold'; font-size:7.3801px;">AÇIKÖĞRETİM SİSTEMİ</text>
</g>
</svg>
