<?xml version="1.0" encoding="utf-8"?>
<!-- Generator: Adobe Illustrator 25.2.0, SVG Export Plug-In . SVG Version: 6.00 Build 0)  -->
<svg version="1.1" id="Layer_1" xmlns="http://www.w3.org/2000/svg" xmlns:xlink="http://www.w3.org/1999/xlink" x="0px" y="0px"
	 viewBox="0 0 300 35.8" style="enable-background:new 0 0 300 35.8;" xml:space="preserve">
<style type="text/css">
	.st0{fill:#004A83;}
	.st1{fill:none;stroke:#1D1D1B;stroke-width:0.35;}
	.st2{fill:#004A84;}
</style>
<path class="st0" d="M13.4,34.2c0.1,0,0.1,0,0.2,0.1l2.1,0.6H16c0.4,0,0.7-0.3,0.7-0.7c0,0,0,0,0,0l0,0v-4c0-0.5-0.3-0.9-0.8-1h-0.1
	c-0.7-0.2-1.4-0.4-2.1-0.7h-0.3c-0.4,0-0.7,0.3-0.7,0.7c0,0,0,0,0,0l0,0v4.1C12.7,33.7,13,34.1,13.4,34.2"/>
<path class="st0" d="M17.5,5.9c0.5,0,0.9,0.4,0.9,0.9v27.8c0,0.6,0.5,1.1,1.1,1.1H21c1,0,2.1-0.1,3.1-0.2
	c10.4-1.2,18.2-8.9,18.2-17.7c0-6-3.6-11.6-9.5-14.9h-0.1c-0.5-0.2-1-0.1-1.3,0.4c-0.1,0.1-0.1,0.3-0.1,0.4v4c0,0.4,0.2,0.8,0.5,1
	c0.1,0.1,0.2,0.1,0.3,0.2c2.9,2,4.7,5.3,4.8,8.9c0,5.6-4.8,10.5-11.7,11.9h-0.3c-0.5,0-0.9-0.3-0.9-0.7c0,0,0,0,0-0.1l0,0V1.1
	c0-0.6-0.5-1-1.1-1C22.4,0,21.8,0,21.3,0c-1,0-2.1,0.1-3.1,0.2C7.8,1.5,0,9.1,0,17.9c0,6,3.6,11.6,9.5,14.9l0.1,0.1
	c0.2,0,0.4,0.1,0.6,0.1c0.5-0.1,0.9-0.5,0.9-1v-4c0-0.4-0.2-0.8-0.5-1c-0.1-0.1-0.2-0.1-0.3-0.2c-2.9-2-4.7-5.3-4.8-8.9
	c0-5.6,4.8-10.5,11.7-11.9L17.5,5.9"/>
<path class="st0" d="M26.3,0.2c-0.4,0-0.7,0.3-0.8,0.7l0,0v4c0,0.5,0.3,0.9,0.8,1h0.1c0.7,0.2,1.3,0.4,2,0.7h0.3
	c0.4,0,0.7-0.3,0.7-0.7c0,0,0,0,0,0V2c0-0.4-0.2-0.8-0.6-1l0,0c-0.1,0-0.2-0.1-0.3-0.1l-2.1-0.6L26.3,0.2"/>
<path class="st0" d="M56.4,5.3c0-0.1-0.1-0.1-0.2-0.1h-1.4c-0.1,0-0.1,0-0.2,0.1l-6.2,13.4v0.2c0,0.1,0.1,0.1,0.2,0.1h1.6
	c0.1,0,0.1,0,0.2-0.1l5.1-11.2l2.7,6h-4.1c-0.1,0-0.2,0-0.2,0.1l-0.7,1.4v0.2c0,0.1,0.1,0.1,0.2,0.1H59l1.5,3.4
	c0,0.1,0.1,0.1,0.2,0.1h1.7c0.1,0,0.2,0,0.2-0.1v-0.2"/>
<path class="st0" d="M89,5.3c0-0.1-0.1-0.1-0.2-0.1h-1.4c-0.1,0-0.1,0-0.2,0.1L81,18.7v0.2c0,0.1,0.1,0.1,0.2,0.1h1.6
	c0.1,0,0.1,0,0.2-0.1l5-11.2l2.7,6h-4c-0.1,0-0.2,0-0.2,0.1l-0.7,1.4v0.2c0,0.1,0.1,0.1,0.2,0.1h5.6l1.5,3.4c0,0.1,0.1,0.1,0.2,0.1
	H95c0.1,0,0.2,0,0.2-0.1v-0.2"/>
<path class="st0" d="M77.2,5.2h-1.5c-0.1,0-0.2,0.1-0.2,0.2l0,0v10L67.4,5.3c0-0.1-0.1-0.1-0.2-0.1h-1.4c-0.1,0-0.2,0.1-0.2,0.2l0,0
	v13.4c0,0.1,0.1,0.2,0.2,0.2h1.5c0.1,0,0.2-0.1,0.2-0.2l0,0V8.5L75.8,19c0,0.1,0.1,0.1,0.2,0.1h1.2c0.1,0,0.2-0.1,0.2-0.2l0,0V5.5
	C77.5,5.3,77.4,5.2,77.2,5.2L77.2,5.2"/>
<path class="st0" d="M100.5,17.2V7.1h3c3.2,0,5.4,2.1,5.4,5.1s-2.2,5-5.4,5 M98.8,19h4.7c4.3,0,7.5-2.9,7.5-7s-3.1-6.9-7.5-6.9h-4.7
	c-0.1,0-0.2,0.1-0.2,0.2v13.4C98.5,18.9,98.6,19.1,98.8,19"/>
<path class="st0" d="M121.4,17.4c-2.8,0-5.1-2.3-5.1-5.1v-0.2c-0.1-2.8,2.1-5.2,4.9-5.3c2.8-0.1,5.2,2.1,5.3,4.9v0.5l0,0
	c0.1,2.8-2,5.1-4.8,5.2c0,0-0.1,0-0.1,0C121.5,17.3,121.5,17.3,121.4,17.4 M121.4,4.9c-3.9,0-7.1,3.1-7.2,7v0.2l0,0
	c-0.1,3.9,3,7,6.9,7.1c0,0,0,0,0,0h0.3c3.9,0,7.1-3.1,7.2-7V12c0.1-3.9-3-7-6.9-7.1c0,0,0,0,0,0L121.4,4.9"/>
<path class="st0" d="M132.7,19.1h9.2c0.1,0,0.2-0.1,0.2-0.2l0,0v-1.4c0-0.1-0.1-0.2-0.2-0.2h-7.4V5.5c0-0.1-0.1-0.2-0.2-0.2h-1.5
	c-0.1,0-0.2,0.1-0.2,0.2l0,0v13.4C132.4,18.9,132.5,19.1,132.7,19.1L132.7,19.1"/>
<path class="st0" d="M156.6,5.2H155c-0.1,0-0.2,0.1-0.2,0.2l0,0v7.8c0,2.7-1.4,4.2-3.9,4.2s-3.9-1.6-3.9-4.3V5.5
	c0-0.1-0.1-0.2-0.2-0.2h-1.5c-0.1,0-0.2,0.1-0.2,0.2l0,0v7.8c0,3.7,2.3,6,5.9,6s5.9-2.3,5.9-6.1V5.5C156.8,5.3,156.7,5.2,156.6,5.2
	L156.6,5.2"/>
<path class="st0" d="M58.1,23.2c0.1,0,0.2-0.1,0.2-0.2l0,0v-0.4c0-0.1-0.1-0.2-0.2-0.2h-0.3c-0.1,0-0.2,0.1-0.2,0.2l0,0V23
	c0,0.1,0.1,0.2,0.2,0.2l0,0"/>
<path class="st0" d="M55.8,23.2c0.1,0,0.2-0.1,0.2-0.2l0,0v-0.4c0-0.1-0.1-0.2-0.2-0.2h-0.3c-0.1,0-0.2,0.1-0.2,0.2l0,0V23
	c0,0.1,0.1,0.2,0.2,0.2l0,0"/>
<path class="st0" d="M59.3,23.9h-0.2c-0.1,0-0.2,0.1-0.2,0.2v3.4c0,1.5-0.7,2.4-2.1,2.4s-2.1-0.9-2.1-2.4v-3.4
	c0-0.1-0.1-0.2-0.2-0.2h-0.2c-0.1,0-0.2,0.1-0.2,0.2v3.4c0,1.9,1,3,2.8,3s2.8-1.1,2.8-3v-3.4C59.5,24,59.4,23.9,59.3,23.9"/>
<path class="st0" d="M69.3,23.9h-0.2c-0.1,0-0.2,0.1-0.2,0.2v5.1L64.6,24c0-0.1-0.1-0.1-0.2-0.1h-0.2c-0.1,0-0.2,0.1-0.2,0.2v6.1
	c0,0.1,0.1,0.2,0.2,0.2h0.2c0.1,0,0.2-0.1,0.2-0.2l0,0v-5.1l4.3,5.3c0,0.1,0.1,0.1,0.2,0.1h0.2c0.1,0,0.2-0.1,0.2-0.2l0,0v-6.1
	C69.6,24,69.5,23.9,69.3,23.9"/>
<path class="st0" d="M74.7,22.7h-0.3c-0.1,0-0.2,0.1-0.2,0.2v0.4c0,0.1,0.1,0.2,0.2,0.2h0.3c0.1,0,0.2-0.1,0.2-0.2l0,0v-0.4
	C75,22.8,74.9,22.7,74.7,22.7"/>
<path class="st0" d="M74.7,24.4h-0.2c-0.1,0-0.2,0.1-0.2,0.2v5.7c0,0.1,0.1,0.2,0.2,0.2h0.2c0.1,0,0.2-0.1,0.2-0.2l0,0v-5.7
	C74.9,24.5,74.8,24.3,74.7,24.4"/>
<path class="st0" d="M85,23.9h-0.2c-0.1,0-0.1,0-0.2,0.1l-2.5,5.4L79.6,24c0-0.1-0.1-0.1-0.2-0.1h-0.2c-0.1,0-0.2,0-0.2,0.1v0.2
	l2.8,6.2c0,0.1,0.1,0.1,0.2,0.1h0.2c0.1,0,0.2,0,0.2-0.1l2.8-6.2c0-0.1,0-0.3-0.1-0.3L85,23.9"/>
<path class="st0" d="M93.8,29.8h-4v-2.3h3.5c0.1,0,0.2-0.1,0.2-0.2l0,0v-0.2c0-0.1-0.1-0.2-0.2-0.2h-3.5v-2.3h3.9
	c0.1,0,0.2-0.1,0.2-0.2v-0.2c0-0.1-0.1-0.2-0.2-0.2h-4.3c-0.1,0-0.2,0.1-0.2,0.2v6.1c0,0.1,0.1,0.2,0.2,0.2h4.4
	c0.1,0,0.2-0.1,0.2-0.2l0,0v-0.2C94.1,29.9,93.9,29.8,93.8,29.8L93.8,29.8"/>
<path class="st0" d="M101.7,27.7c1-0.1,1.8-0.9,1.8-1.9c0-0.5-0.2-0.9-0.5-1.3c-0.5-0.5-1.2-0.7-1.9-0.7h-2.6
	c-0.1,0-0.2,0.1-0.2,0.2v6.1c0,0.1,0.1,0.2,0.2,0.2h0.2c0.1,0,0.2-0.1,0.2-0.2v-5.7h2.1c1.2,0,1.8,0.5,1.8,1.3s-0.7,1.3-1.9,1.3l0,0
	c-0.1,0-0.1,0-0.2,0.1v0.2l2.2,2.8c0,0.1,0.1,0.1,0.2,0.1h0.2c0.1,0,0.2,0,0.2-0.1v-0.2"/>
<path class="st0" d="M110.3,26.8c-1.5-0.3-1.8-0.7-1.8-1.2c0.1-0.8,0.8-1.3,1.6-1.2c0.7,0,1.3,0.2,1.9,0.6c0.1,0.1,0.2,0.1,0.3,0
	c0,0,0,0,0,0l0.1-0.2v-0.2c0-0.1,0-0.1-0.1-0.2c-0.7-0.5-1.5-0.8-2.3-0.8c-1.1-0.1-2.1,0.7-2.2,1.8c0,0,0,0,0,0
	c0,1.2,1.1,1.6,2.3,1.8c1.6,0.3,1.8,0.7,1.8,1.2c-0.2,0.8-0.9,1.3-1.7,1.2c-0.8,0-1.6-0.3-2.2-0.9c-0.1-0.1-0.2-0.1-0.3,0
	c0,0,0,0,0,0l-0.2,0.1c-0.1,0.1-0.1,0.1-0.1,0.2c0,0.1,0,0.1,0.1,0.2c0.7,0.7,1.6,1,2.6,1c1.4,0,2.4-0.8,2.4-1.9
	S111.9,27.1,110.3,26.8"/>
<path class="st0" d="M117.4,22.7h-0.3c-0.1,0-0.2,0.1-0.2,0.2l0,0v0.4c0,0.1,0.1,0.2,0.2,0.2h0.3c0.1,0,0.2-0.1,0.2-0.2v-0.4
	C117.7,22.8,117.6,22.7,117.4,22.7L117.4,22.7"/>
<path class="st0" d="M117.4,24.4h-0.2c-0.1,0-0.2,0.1-0.2,0.2l0,0v5.7c0,0.1,0.1,0.2,0.2,0.2h0.2c0.1,0,0.2-0.1,0.2-0.2v-5.7
	C117.6,24.5,117.5,24.4,117.4,24.4L117.4,24.4"/>
<path class="st0" d="M126.5,23.9h-4.7c-0.1,0-0.2,0.1-0.2,0.2l0,0v0.2c0,0.1,0.1,0.2,0.2,0.2h2v5.7c0,0.1,0.1,0.2,0.2,0.2h0.2
	c0.1,0,0.2-0.1,0.2-0.2l0,0v-5.7h2c0.1,0,0.2-0.1,0.2-0.2l0,0v-0.2C126.7,24,126.6,23.9,126.5,23.9L126.5,23.9"/>
<path class="st0" d="M135.3,29.8h-4v-2.3h3.5c0.1,0,0.2-0.1,0.2-0.2v-0.2c0-0.1-0.1-0.2-0.2-0.2h-3.5v-2.3h3.9
	c0.1,0,0.2-0.1,0.2-0.2l0,0v-0.2c0-0.1-0.1-0.2-0.2-0.2h-4.3c-0.1,0-0.2,0.1-0.2,0.2l0,0v6.1c0,0.1,0.1,0.2,0.2,0.2h4.4
	c0.1,0,0.2-0.1,0.2-0.2l0,0v-0.2C135.5,29.9,135.4,29.8,135.3,29.8L135.3,29.8"/>
<path class="st0" d="M142,26.8c-1.5-0.3-1.8-0.7-1.8-1.2c0.1-0.8,0.8-1.3,1.6-1.2c0.7,0,1.3,0.2,1.9,0.6c0.1,0.1,0.2,0.1,0.3,0
	c0,0,0,0,0,0l0.1-0.2c0.1-0.1,0.1-0.2,0-0.3c0,0,0,0,0,0l0,0c-0.7-0.5-1.5-0.8-2.3-0.8c-1.1-0.1-2.1,0.7-2.3,1.8l0,0
	c0,1.2,1.1,1.6,2.3,1.8c1.6,0.3,1.9,0.7,1.9,1.2c-0.2,0.8-0.9,1.3-1.7,1.2c-0.8,0-1.6-0.3-2.2-0.9c-0.1-0.1-0.2-0.1-0.3,0
	c0,0,0,0,0,0l-0.1,0.1c-0.1,0.1-0.1,0.1-0.1,0.2c0,0.1,0,0.1,0.1,0.2c0.7,0.7,1.6,1,2.6,1c1.4,0,2.4-0.8,2.4-1.9
	S143.6,27.1,142,26.8"/>
<path class="st0" d="M149.2,22.7h-0.3c-0.1,0-0.2,0.1-0.2,0.2l0,0v0.4c0,0.1,0.1,0.2,0.2,0.2h0.3c0.1,0,0.2-0.1,0.2-0.2v-0.4
	C149.4,22.8,149.3,22.7,149.2,22.7L149.2,22.7"/>
<path class="st0" d="M149.1,24.4h-0.2c-0.1,0-0.2,0.1-0.2,0.2l0,0v5.7c0,0.1,0.1,0.2,0.2,0.2h0.2c0.1,0,0.2-0.1,0.2-0.2l0,0v-5.7
	C149.3,24.5,149.2,24.3,149.1,24.4L149.1,24.4"/>
<line class="st1" x1="188" y1="0" x2="188" y2="35.8"/>
<path class="st2" d="M219.3,11.6l-1,2.8h-1.2l3.1-9.1h1.5l3.1,9.1h-1.2l-1-2.8H219.3z M222.3,10.8l-0.9-2.6
	c-0.2-0.6-0.4-1.1-0.5-1.7l0,0c-0.1,0.6-0.3,1.1-0.5,1.6l-0.9,2.6L222.3,10.8z"/>
<path class="st2" d="M232.5,14.2c-0.7,0.4-1.5,0.5-2.3,0.5l-0.4,0.5c0.5,0.1,1,0.5,1,1c-0.1,0.7-0.7,1.2-1.4,1.1
	c-0.3,0-0.7-0.1-1-0.2l0.2-0.6c0.2,0.1,0.5,0.1,0.7,0.1c0.4,0,0.6-0.1,0.6-0.4s-0.4-0.5-1.1-0.6l0.6-1c-2.3-0.2-4-2.2-3.8-4.6
	c0,0,0,0,0,0c-0.1-2.5,1.8-4.7,4.4-4.8c0.1,0,0.3,0,0.4,0c0.8,0,1.5,0.1,2.2,0.4l-0.2,1c-0.6-0.3-1.2-0.4-1.9-0.4
	c-2.1,0-3.6,1.4-3.6,3.8c0,2.2,1.2,3.7,3.5,3.7c0.7,0,1.4-0.1,2-0.4L232.5,14.2z"/>
<path class="st2" d="M235.8,5.3v9.1h-1.2V5.3H235.8z"/>
<path class="st2" d="M238.4,5.3h1.2v4.4l0,0c0.2-0.4,0.5-0.6,0.7-1l2.8-3.5h1.5l-3.3,3.8l3.6,5.3h-1.4l-3-4.4l-0.9,1v3.5h-1.2
	L238.4,5.3L238.4,5.3z"/>
<path class="st2" d="M249.8,4.1c0-0.3,0.3-0.6,0.6-0.6c0.3,0,0.6,0.3,0.6,0.6c0,0.4-0.2,0.7-0.6,0.8C250.1,4.8,249.9,4.5,249.8,4.1z
	 M247.2,4.1c0-0.3,0.2-0.6,0.5-0.6c0,0,0.1,0,0.1,0c0.3,0,0.6,0.2,0.6,0.5c0,0,0,0,0,0.1c0,0.4-0.2,0.7-0.6,0.8
	C247.5,4.8,247.3,4.5,247.2,4.1z M253.4,9.9c0,3.2-2,4.8-4.2,4.8c-2.5,0-4.1-1.9-4.1-4.7s1.9-4.8,4.2-4.8S253.4,7.2,253.4,9.9z
	 M246.3,10c0,2,1.1,3.7,3,3.7s3-1.7,3-3.8c0-1.9-1-3.7-3-3.7S246.3,8.1,246.3,10L246.3,10z"/>
<path class="st2" d="M258.4,3.4c0.1,0.4,0.2,0.6,1,0.6c0.4,0,0.8-0.2,1-0.6h0.7c0,0.9-0.5,1.5-1.7,1.5c-0.9,0.1-1.6-0.6-1.7-1.4
	c0,0,0,0,0-0.1L258.4,3.4z M262.4,14.1c-0.9,0.4-1.9,0.5-2.8,0.5c-1.3,0-2.5-0.4-3.5-1.2c-0.8-1-1.3-2.2-1.2-3.5
	c0-2.7,1.8-4.7,4.9-4.7c0.8,0,1.5,0.1,2.2,0.4l-0.2,1c-0.6-0.3-1.3-0.4-2-0.4c-1.9-0.2-3.6,1.3-3.7,3.1c0,0.2,0,0.4,0,0.6
	c-0.2,1.8,1.1,3.5,3,3.7c0.2,0,0.4,0,0.6,0c0.5,0,1.1-0.1,1.6-0.2v-2.7h-1.9v-1h3L262.4,14.1L262.4,14.1z"/>
<path class="st2" d="M264.8,5.5c0.7-0.1,1.5-0.2,2.2-0.2c0.9-0.1,1.9,0.2,2.6,0.7c0.5,0.4,0.8,1.1,0.7,1.7c0,1.1-0.7,2-1.7,2.3l0,0
	c0.7,0.2,1.1,0.9,1.4,1.9c0.1,0.9,0.4,1.7,0.7,2.5h-1.2c-0.3-0.7-0.5-1.5-0.6-2.2c-0.2-1.2-0.8-1.7-1.9-1.7h-1v4h-1.2L264.8,5.5z
	 M266,9.7h1.2c1,0.1,2-0.6,2.1-1.6c0,0,0-0.1,0-0.1c0-1.2-0.9-1.7-2.1-1.7c-0.6,0-1,0-1.1,0.1v3.3H266z"/>
<path class="st2" d="M277.4,10.3h-3.6v3.3h4v1h-5.2V5.3h4.9v1h-3.7v2.8h3.6V10.3z"/>
<path class="st2" d="M281.6,6.3h-2.8v-1h6.8v1h-2.8v8.1h-1.2V6.3H281.6z"/>
<path class="st2" d="M287.1,4.1c0-0.3,0.2-0.6,0.5-0.6c0,0,0,0,0.1,0c0.3,0,0.6,0.3,0.6,0.6c0,0.2-0.2,0.8-0.6,0.8
	C287.4,4.7,287.2,4.4,287.1,4.1z M288.4,5.3v9.1h-1.2V5.3H288.4z"/>
<path class="st2" d="M298.6,10.5c-0.1-1.2-0.1-2.8-0.1-4l0,0c-0.4,1.1-0.7,2.2-1.1,3.5l-1.6,4.4h-0.9l-1.5-4.3
	c-0.5-1.2-0.8-2.4-1.1-3.6l0,0c0,1.1-0.1,2.7-0.1,4.1l-0.2,4h-1.2l0.6-9.1h1.5l1.6,4.4c0.4,1,0.7,2,0.9,3.1l0,0c0.2-0.9,0.6-2,1-3.1
	l1.6-4.4h1.5l0.6,9.1h-1.1L298.6,10.5z"/>
<path class="st2" d="M259,20.5c0-0.3,0.2-0.6,0.6-0.6c0,0,0,0,0.1,0c0.3,0,0.6,0.3,0.6,0.6c0,0.4-0.2,0.7-0.6,0.7
	C259.3,21.2,259,20.9,259,20.5z M260.2,21.9V31H259v-9.1L260.2,21.9z"/>
<path class="st2" d="M256.3,27c-0.1-1.2-0.1-2.8-0.1-4l0,0c-0.4,1.1-0.7,2.2-1.1,3.5l-1.6,4.4h-0.9l-1.5-4.3
	c-0.5-1.2-0.8-2.4-1.1-3.6l0,0c0,1.1-0.1,2.7-0.1,4.1l-0.2,4h-1.1l0.6-9.1h1.5l1.6,4.4c0.4,1,0.7,2,0.9,3.1l0,0c0.2-0.9,0.6-2,1-3.1
	l1.6-4.5h1.5l0.6,9.1h-1.1L256.3,27z"/>
<path class="st2" d="M236,22.9h-2.8v-1h6.8v1h-2.7V31H236V22.9z"/>
<path class="st2" d="M246.4,26.7h-3.6V30h3.9v1h-5.2v-9.2h4.9v1h-3.7v2.8h3.6V26.7z"/>
<path class="st2" d="M217.5,29.5c0.6,0.4,1.4,0.6,2.1,0.6c1.2,0,2-0.6,2-1.6s-0.5-1.4-1.7-1.9c-1.5-0.5-2.5-1.4-2.5-2.6
	c0-1.5,1.2-2.5,3-2.5c0.7,0,1.4,0.1,2,0.5l-0.4,1c-0.5-0.3-1.1-0.5-1.7-0.5c-1.2,0-1.7,0.7-1.7,1.4c0,0.9,0.5,1.2,1.9,1.7
	c1.6,0.6,2.4,1.4,2.4,2.7s-1,2.6-3.2,2.6c-0.8,0-1.6-0.2-2.4-0.6L217.5,29.5z"/>
<path class="st2" d="M226.9,29.5c0.6,0.4,1.4,0.6,2.1,0.6c1.2,0,2-0.6,2-1.6s-0.5-1.4-1.7-1.9c-1.5-0.5-2.5-1.4-2.5-2.6
	c0-1.5,1.2-2.5,3-2.5c0.7,0,1.4,0.1,2,0.5l-0.4,1c-0.5-0.3-1.1-0.5-1.7-0.5c-1.2,0-1.7,0.7-1.7,1.4c0,0.9,0.5,1.2,1.9,1.7
	c1.6,0.6,2.4,1.4,2.4,2.7s-1,2.6-3.2,2.6c-0.8,0-1.6-0.2-2.4-0.6L226.9,29.5z"/>
<path class="st2" d="M224,20.5c0-0.3,0.2-0.6,0.6-0.6c0,0,0,0,0.1,0c0.3,0,0.6,0.3,0.6,0.6c0,0.4-0.2,0.7-0.6,0.7
	C224.3,21.2,224,20.9,224,20.5z M225.2,21.9V31H224v-9.1L225.2,21.9z"/>
</svg>
