<svg xmlns="http://www.w3.org/2000/svg" width="223.868" height="51.059" viewBox="0 0 223.868 51.059">
  <g id="Group_1123" data-name="Group 1123" transform="translate(917.143 -227.811) rotate(90)">
    <path id="Path_789" data-name="Path 789" d="M250.754,635.591a1.4,1.4,0,0,0,.128-.355c.316-.995.582-1.965.8-2.935a1.156,1.156,0,0,0,.069-.371l.006-.078a1.014,1.014,0,0,0-1.006-1.017h-5.654a1.559,1.559,0,0,0-1.491,1.1l-.033.1a25.832,25.832,0,0,1-1.031,2.946,1.432,1.432,0,0,0-.067.15,1.041,1.041,0,0,0-.053.338,1.011,1.011,0,0,0,1,1.017l5.856.006a1.58,1.58,0,0,0,1.444-.851" transform="translate(25.879 262.41)" fill="#004a83"/>
    <path id="Path_790" data-name="Path 790" d="M236.272,653.062a1.247,1.247,0,0,1,1.206-1.286l39.715-.058a1.6,1.6,0,0,0,1.619-1.544c.058-.8.058-1.43.058-2.1a36.961,36.961,0,0,0-.269-4.431c-1.818-14.816-12.682-25.988-25.273-25.988-8.583,0-16.543,5.094-21.3,13.624a1.057,1.057,0,0,0-.078.141,1.452,1.452,0,0,0-.147.635,1.424,1.424,0,0,0,1.347,1.433h5.765a2.118,2.118,0,0,0,1.458-.7,2.348,2.348,0,0,0,.266-.363c3.373-4.459,7.871-6.9,12.685-6.9,8.023,0,15.027,6.881,17.033,16.74a1.953,1.953,0,0,1,.044.41,1.248,1.248,0,0,1-1.2,1.286l-39.718.056a1.622,1.622,0,0,0-1.6,1.555,20.384,20.384,0,0,0-.075,2.1,36.263,36.263,0,0,0,.269,4.432c1.815,14.816,12.679,25.985,25.273,25.985,8.58,0,16.543-5.091,21.293-13.622.033-.053.058-.095.08-.139a2.282,2.282,0,0,0,.233-.776,1.4,1.4,0,0,0-1.436-1.294h-5.512l-.136,0-.111,0a2.127,2.127,0,0,0-1.461.7,2.017,2.017,0,0,0-.266.36c-3.373,4.462-7.868,6.9-12.685,6.9-8.026,0-15.03-6.885-17.036-16.742a2.153,2.153,0,0,1-.044-.41" transform="translate(0 239.055)" fill="#004a83"/>
    <path id="Path_791" data-name="Path 791" d="M227.926,628.822a1.029,1.029,0,0,0,1,1.086h5.654a1.576,1.576,0,0,0,1.5-1.1l.033-.119a25.134,25.134,0,0,1,1.025-2.932,1.473,1.473,0,0,0,.067-.15,1.042,1.042,0,0,0,.055-.338,1.014,1.014,0,0,0-1.006-1.017l-5.812,0a1.594,1.594,0,0,0-1.485.845l-.042.08a2.037,2.037,0,0,0-.111.366c-.308.978-.574,1.951-.8,2.935a1.49,1.49,0,0,0-.078.341" transform="translate(0.204 250.738)" fill="#004a83"/>
    <path id="Path_792" data-name="Path 792" d="M230.652,616.065a.344.344,0,0,0-.2.31v2.054a.344.344,0,0,0,.2.311l19.2,8.846a.326.326,0,0,0,.319-.022.343.343,0,0,0,.155-.285v-2.247a.335.335,0,0,0-.2-.31l-16.014-7.289,8.569-3.888v5.815a.341.341,0,0,0,.186.3l1.934.984a.33.33,0,0,0,.324-.014.341.341,0,0,0,.161-.291v-7.96l4.839-2.187a.342.342,0,0,0,.2-.313v-2.356a.345.345,0,0,0-.155-.288.334.334,0,0,0-.319-.022" transform="translate(4.684 220.515)" fill="#004a83"/>
    <path id="Path_793" data-name="Path 793" d="M230.652,599.3a.343.343,0,0,0-.2.31v2.051a.344.344,0,0,0,.2.31l19.2,8.849a.334.334,0,0,0,.319-.022.344.344,0,0,0,.155-.286V608.27a.342.342,0,0,0-.2-.313l-16.014-7.286,8.569-3.888v5.812a.348.348,0,0,0,.186.308l1.934.981a.317.317,0,0,0,.324-.014.339.339,0,0,0,.161-.288v-7.962l4.839-2.184a.342.342,0,0,0,.2-.313v-2.356a.344.344,0,0,0-.155-.288.334.334,0,0,0-.319-.022" transform="translate(4.684 190.825)" fill="#004a83"/>
    <path id="Path_794" data-name="Path 794" d="M230.5,599.882v2.134a.338.338,0,0,0,.335.341h14.315l-14.522,11.626a.343.343,0,0,0-.128.269V616.3a.338.338,0,0,0,.335.341h19.068a.338.338,0,0,0,.335-.341v-2.134a.338.338,0,0,0-.335-.341H235.238L250.115,601.9a.343.343,0,0,0,.128-.269v-1.746a.338.338,0,0,0-.335-.341H230.839a.338.338,0,0,0-.335.341" transform="translate(4.771 206.974)" fill="#004a83"/>
    <path id="Path_795" data-name="Path 795" d="M247.584,597.2H233.161V592.99c0-4.537,2.965-7.7,7.267-7.7,4.213,0,7.156,3.168,7.156,7.7m2.658,6.74v-6.74c0-6.178-4.152-10.659-9.922-10.659-5.687,0-9.816,4.481-9.816,10.659v6.74a.338.338,0,0,0,.335.341h19.068a.338.338,0,0,0,.335-.341" transform="translate(4.769 176.487)" fill="#004a83"/>
    <path id="Path_796" data-name="Path 796" d="M248.118,583.456a7.541,7.541,0,1,1-7.536-7.261h.055a7.212,7.212,0,0,1,7.48,7.261m-17.732,0a10.123,10.123,0,0,0,10.2,10.271h.055a9.953,9.953,0,0,0,10.138-10.213,10.136,10.136,0,0,0-10.249-10.274,9.956,9.956,0,0,0-10.141,10.216" transform="translate(4.562 160.382)" fill="#004a83"/>
    <path id="Path_797" data-name="Path 797" d="M250.241,579.715V566.592a.34.34,0,0,0-.335-.341h-1.987a.34.34,0,0,0-.335.341v10.59H230.838a.338.338,0,0,0-.335.341v2.192a.338.338,0,0,0,.335.341h19.068a.338.338,0,0,0,.335-.341" transform="translate(4.769 148.001)" fill="#004a83"/>
    <path id="Path_798" data-name="Path 798" d="M230.5,559.023v2.192a.338.338,0,0,0,.335.341h11.086c3.841,0,5.959,1.957,5.959,5.512s-2.22,5.6-6.094,5.6h-10.95a.335.335,0,0,0-.335.338v2.192a.338.338,0,0,0,.335.341h11.086c5.316,0,8.616-3.223,8.616-8.414,0-5.282-3.281-8.439-8.777-8.439H230.839a.338.338,0,0,0-.335.341" transform="translate(4.771 134.593)" fill="#004a83"/>
    <path id="Path_799" data-name="Path 799" d="M240.586,609.769a.338.338,0,0,0-.335-.341h-.624a.335.335,0,0,0-.333.341v.485a.337.337,0,0,0,.333.341h.624a.339.339,0,0,0,.335-.341" transform="translate(20.343 224.488)" fill="#004a83"/>
    <path id="Path_800" data-name="Path 800" d="M240.586,610.9a.338.338,0,0,0-.335-.341h-.624a.335.335,0,0,0-.333.341v.482a.335.335,0,0,0,.333.341h.624a.338.338,0,0,0,.335-.341" transform="translate(20.343 226.495)" fill="#004a83"/>
    <path id="Path_801" data-name="Path 801" d="M240.116,609.125v.28a.338.338,0,0,0,.335.341h4.878c2.2,0,3.409,1.053,3.409,2.963s-1.247,2.985-3.423,2.985h-4.864a.34.34,0,0,0-.335.341v.283a.34.34,0,0,0,.335.341h4.864c2.719,0,4.34-1.472,4.34-3.938s-1.621-3.935-4.34-3.935h-4.864a.338.338,0,0,0-.335.341" transform="translate(21.798 223.347)" fill="#004a83"/>
    <path id="Path_802" data-name="Path 802" d="M240.116,603.948v.269a.335.335,0,0,0,.335.338h7.331l-7.541,6.153a.34.34,0,0,0-.125.266v.241a.338.338,0,0,0,.335.341h8.733a.335.335,0,0,0,.333-.341v-.266a.335.335,0,0,0-.333-.341h-7.331l7.538-6.15a.348.348,0,0,0,.125-.266v-.244a.335.335,0,0,0-.333-.341h-8.733a.338.338,0,0,0-.335.341" transform="translate(21.798 214.176)" fill="#004a83"/>
    <path id="Path_803" data-name="Path 803" d="M239.513,601.174v.485a.34.34,0,0,0,.335.341h.624a.339.339,0,0,0,.333-.341v-.485a.337.337,0,0,0-.333-.341h-.624a.338.338,0,0,0-.335.341" transform="translate(20.73 209.262)" fill="#004a83"/>
    <path id="Path_804" data-name="Path 804" d="M240.358,601.21v.28a.338.338,0,0,0,.335.341h8.065a.337.337,0,0,0,.333-.341v-.28a.337.337,0,0,0-.333-.341h-8.065a.338.338,0,0,0-.335.341" transform="translate(22.227 209.326)" fill="#004a83"/>
    <path id="Path_805" data-name="Path 805" d="M240.116,595.888v.291a.344.344,0,0,0,.2.313l7.73,3.539-7.73,3.537a.344.344,0,0,0-.2.313v.3a.338.338,0,0,0,.471.313l8.8-4.043a.337.337,0,0,0,.2-.308v-.216a.337.337,0,0,0-.2-.31l-8.8-4.041a.328.328,0,0,0-.319.025.333.333,0,0,0-.152.285" transform="translate(21.798 199.899)" fill="#004a83"/>
    <path id="Path_806" data-name="Path 806" d="M248.6,591.325v5.654h-3.348v-5.044a.338.338,0,0,0-.335-.341h-.247a.336.336,0,0,0-.335.341v5.044h-3.3v-5.59a.335.335,0,0,0-.333-.341h-.249a.338.338,0,0,0-.335.341V597.6a.338.338,0,0,0,.335.341h8.733a.335.335,0,0,0,.333-.341v-6.275a.335.335,0,0,0-.333-.341h-.249a.338.338,0,0,0-.335.341" transform="translate(21.798 191.815)" fill="#004a83"/>
    <path id="Path_807" data-name="Path 807" d="M245.631,588.754a2.771,2.771,0,0,0-2.735-2.616,2.54,2.54,0,0,0-1.857.734,3.85,3.85,0,0,0-.923,2.794V593.3a.338.338,0,0,0,.335.341h8.733a.34.34,0,0,0,.335-.341v-.28a.339.339,0,0,0-.335-.341h-8.148v-2.985c0-1.652.682-2.594,1.9-2.594,1.164,0,1.86,1.012,1.86,2.708v.089a.345.345,0,0,0,.18.3.327.327,0,0,0,.346-.025l4.066-3.132a.342.342,0,0,0,.133-.272v-.343a.344.344,0,0,0-.186-.305.338.338,0,0,0-.352.036" transform="translate(21.798 183.142)" fill="#004a83"/>
    <path id="Path_808" data-name="Path 808" d="M244.382,584.785c-.438,2.184-.945,2.6-1.754,2.6s-1.638-.84-1.638-2.25a4.465,4.465,0,0,1,.9-2.666.341.341,0,0,0-.058-.474l-.227-.177a.344.344,0,0,0-.249-.069.336.336,0,0,0-.219.13,5.313,5.313,0,0,0-1.07,3.232c0,1.815,1.131,3.237,2.594,3.237,1.727,0,2.284-1.591,2.625-3.309.441-2.217.962-2.636,1.79-2.636,1.014,0,1.724.981,1.724,2.389a4.44,4.44,0,0,1-1.25,3.107.345.345,0,0,0,0,.477l.2.205a.332.332,0,0,0,.482-.008,5.433,5.433,0,0,0,1.488-3.753c0-1.99-1.092-3.378-2.68-3.378-1.416,0-2.187.97-2.661,3.348" transform="translate(21.716 174.903)" fill="#004a83"/>
    <path id="Path_809" data-name="Path 809" d="M239.513,579.174v.485a.34.34,0,0,0,.335.341h.624a.339.339,0,0,0,.333-.341v-.485a.337.337,0,0,0-.333-.341h-.624a.338.338,0,0,0-.335.341" transform="translate(20.73 170.29)" fill="#004a83"/>
    <path id="Path_810" data-name="Path 810" d="M240.358,579.211v.28a.338.338,0,0,0,.335.341h8.065a.337.337,0,0,0,.333-.341v-.28a.337.337,0,0,0-.333-.341h-8.065a.338.338,0,0,0-.335.341" transform="translate(22.227 170.356)" fill="#004a83"/>
    <path id="Path_811" data-name="Path 811" d="M240.116,574.506v6.707a.338.338,0,0,0,.335.341h.249a.335.335,0,0,0,.333-.341v-2.874h8.151a.335.335,0,0,0,.333-.341v-.277a.335.335,0,0,0-.333-.341h-8.151v-2.874a.335.335,0,0,0-.333-.341h-.249a.338.338,0,0,0-.335.341" transform="translate(21.798 162.021)" fill="#004a83"/>
    <path id="Path_812" data-name="Path 812" d="M248.6,569.99v5.654h-3.348V570.6a.336.336,0,0,0-.335-.338h-.247a.334.334,0,0,0-.335.338v5.044h-3.3v-5.59a.335.335,0,0,0-.333-.341h-.249a.337.337,0,0,0-.335.341v6.211a.337.337,0,0,0,.335.341h8.733a.335.335,0,0,0,.333-.341V569.99a.335.335,0,0,0-.333-.341h-.249a.338.338,0,0,0-.335.341" transform="translate(21.798 154.021)" fill="#004a83"/>
    <path id="Path_813" data-name="Path 813" d="M244.382,568.443c-.438,2.184-.945,2.6-1.754,2.6s-1.638-.84-1.638-2.25a4.465,4.465,0,0,1,.9-2.666.341.341,0,0,0-.058-.474l-.227-.177a.345.345,0,0,0-.249-.069.337.337,0,0,0-.219.13,5.314,5.314,0,0,0-1.07,3.232c0,1.815,1.131,3.237,2.594,3.237,1.727,0,2.284-1.591,2.625-3.309.441-2.217.962-2.636,1.79-2.636,1.014,0,1.724.981,1.724,2.389a4.439,4.439,0,0,1-1.25,3.107.345.345,0,0,0,0,.477l.2.2a.341.341,0,0,0,.241.1.348.348,0,0,0,.241-.108,5.433,5.433,0,0,0,1.488-3.753c0-1.99-1.092-3.379-2.68-3.379-1.416,0-2.187.97-2.661,3.348" transform="translate(21.716 145.954)" fill="#004a83"/>
    <path id="Path_814" data-name="Path 814" d="M239.513,562.831v.485a.34.34,0,0,0,.335.341h.624a.339.339,0,0,0,.333-.341v-.485a.337.337,0,0,0-.333-.341h-.624a.338.338,0,0,0-.335.341" transform="translate(20.73 141.339)" fill="#004a83"/>
    <path id="Path_815" data-name="Path 815" d="M240.358,562.868v.28a.338.338,0,0,0,.335.341h8.065a.337.337,0,0,0,.333-.341v-.28a.337.337,0,0,0-.333-.341h-8.065a.338.338,0,0,0-.335.341" transform="translate(22.227 141.404)" fill="#004a83"/>
  </g>
</svg>
