<svg id="Group_1109" data-name="Group 1109" xmlns="http://www.w3.org/2000/svg" xmlns:xlink="http://www.w3.org/1999/xlink" width="278.154" height="43.745" viewBox="0 0 278.154 43.745">
  <defs>
    <linearGradient id="linear-gradient" x1="0.088" y1="4.432" x2="0.902" y2="3.814" gradientUnits="objectBoundingBox">
      <stop offset="0" stop-color="#f1f1f2" stop-opacity="0.2"/>
      <stop offset="1" stop-color="#f1f1f2" stop-opacity="0"/>
    </linearGradient>
  </defs>
  <g id="edevlet" transform="translate(0 0)">
    <path id="Path_172" data-name="Path 172" d="M39.254,17.739a1.22,1.22,0,0,0-.879-1.011l-16.83-5.712a1.646,1.646,0,0,0-.923,0L3.748,16.728a1.229,1.229,0,0,0-.879,1.011c-1.186,11.469.747,20.17,5.932,25.97a19.424,19.424,0,0,0,12.26,6.284h.176a19.1,19.1,0,0,0,12.216-6.284C38.595,37.909,40.528,29.164,39.254,17.739Z" transform="translate(-2.255 -6.248)" fill="#e6e6e6"/>
    <path id="Path_173" data-name="Path 173" d="M39.383,7.654a1.278,1.278,0,0,0-.879-1.1L21.323.316a1.646,1.646,0,0,0-.923,0L3.175,6.556a1.29,1.29,0,0,0-.879,1.1C.978,20.178,2.955,29.625,8.272,35.865a19.155,19.155,0,0,0,12.48,6.9h.176a19.07,19.07,0,0,0,12.48-6.855C38.68,29.625,40.7,20.09,39.383,7.654Z" transform="translate(-1.901 -0.25)" fill="#fff"/>
    <path id="Path_174" data-name="Path 174" d="M39.755,11.819a1.154,1.154,0,0,0-.747-.967L23.672,5.316a1.219,1.219,0,0,0-.791,0L7.59,10.853a1.154,1.154,0,0,0-.747.967c-1.186,11.117.571,19.51,5.273,25.091a16.957,16.957,0,0,0,11.073,6.108h.176a17.021,17.021,0,0,0,11.073-6.064c4.7-5.625,6.46-14.062,5.317-25.135ZM17.345,38.976c-.22-.132-.352-.22-.571-.352a33.241,33.241,0,0,0,10.458-4.438A37.64,37.64,0,0,1,17.345,38.976ZM36.987,20.212a17.71,17.71,0,0,1-1.977,3.3,25.283,25.283,0,0,1-5.537,5.053,40.018,40.018,0,0,1-6.855,3.867,22.879,22.879,0,0,1-4.043,1.406,10.455,10.455,0,0,1-4.7.352,4.223,4.223,0,0,1-1.582-.571,17.515,17.515,0,0,1-1.362-2.724,6.719,6.719,0,0,1,1.186-3.12,15.318,15.318,0,0,1,5.537-5.053A15.026,15.026,0,0,1,26,20.256a14.782,14.782,0,0,0-6.547,2.637c-1.626,1.142-3.515,2.812-4.043,5.009a2.352,2.352,0,0,0,1.406,2.944,8.606,8.606,0,0,0,4,.22,16.516,16.516,0,0,0,6.723-2.5,18.864,18.864,0,0,0,6.855-6.811,11.3,11.3,0,0,0,1.23-3.208c.527-3.164-1.1-4.878-3.384-5.493s-5.669-.132-7.954.615a31.167,31.167,0,0,0-11.6,6.723,33.776,33.776,0,0,0-3.471,3.6c-.088-.615-.176-1.186-.22-1.8a31.2,31.2,0,0,1,3.12-2.768,33.111,33.111,0,0,1,7.426-4.614,29.454,29.454,0,0,1,9.579-2.637l1.538-.044c3.3.044,6.02.967,6.811,3.735a6.922,6.922,0,0,1-.483,4.35Zm-9.975.352a14.848,14.848,0,0,0,1.977,0,3.552,3.552,0,0,0,.659.044c.22-.044.483-.352.7-.483.659-.527,1.318-1.142,1.933-1.626-.22.659-.659,1.362-.967,2.109.879.044,1.846.044,2.812.088-1.1.483-2.241.879-3.428,1.274-.352.747-.7,1.538-1.1,2.285-.4-.439-.7-1.011-1.1-1.45l-3.3,1.23c.923-.7,1.8-1.406,2.724-2.153C27.671,21.487,27.32,21,27.012,20.564Z" transform="translate(-4.47 -3.053)" fill="#ea212e"/>
    <path id="Path_175" data-name="Path 175" d="M40.436,11.668a1.05,1.05,0,0,0-.7-.923L25.671,5.516a.97.97,0,0,0-.7,0L10.907,10.745a1.084,1.084,0,0,0-.7.923c-1.055,10.5.571,18.456,4.922,23.685A15.238,15.238,0,0,0,25.32,41.109H25.5A15.321,15.321,0,0,0,35.69,35.353c4.175-5.229,5.844-13.183,4.746-23.685Z" transform="translate(-6.381 -3.165)" fill="url(#linear-gradient)"/>
    <path id="Path_176" data-name="Path 176" d="M99.682,42.555c.044,1.186.967,1.714,2.065,1.714a4.5,4.5,0,0,0,1.846-.308l.264,1.142a6.549,6.549,0,0,1-2.329.4A3.14,3.14,0,0,1,98.1,42.16a3.264,3.264,0,0,1,3.252-3.559c2.153,0,2.856,1.758,2.856,3.252,0,.308-.044.571-.044.7Zm2.944-1.186a1.439,1.439,0,0,0-1.362-1.626,1.6,1.6,0,0,0-1.538,1.626Zm6.284-.176v1.143h-3.471V41.193Zm1.406-4.878a16.112,16.112,0,0,1,2.68-.176,5.574,5.574,0,0,1,3.735,1.055,4.1,4.1,0,0,1,1.45,3.384,4.744,4.744,0,0,1-1.45,3.647,6.157,6.157,0,0,1-4.175,1.274,15.564,15.564,0,0,1-2.285-.132l.044-9.052Zm1.67,7.822a5.618,5.618,0,0,0,.923.044c2.2,0,3.471-1.186,3.471-3.515a2.929,2.929,0,0,0-3.252-3.208,6.251,6.251,0,0,0-1.143.088Zm8.745-1.582c.044,1.186.967,1.714,2.065,1.714a4.5,4.5,0,0,0,1.846-.308L124.9,45.1a6.549,6.549,0,0,1-2.329.4,3.14,3.14,0,0,1-3.428-3.34A3.264,3.264,0,0,1,122.4,38.6c2.153,0,2.856,1.758,2.856,3.252,0,.308-.044.571-.044.7Zm2.9-1.186a1.439,1.439,0,0,0-1.362-1.626,1.6,1.6,0,0,0-1.538,1.626Zm3.955-2.593,1.1,3.384c.176.571.308,1.1.439,1.67h.044c.132-.527.264-1.055.439-1.67l1.055-3.384h1.758l-2.549,6.635H128.2l-2.461-6.635Zm5.888-3.076h1.67v9.667h-1.67Zm4.658,6.855c.044,1.186.967,1.714,2.065,1.714a4.5,4.5,0,0,0,1.846-.308l.264,1.142a6.549,6.549,0,0,1-2.329.4,3.14,3.14,0,0,1-3.428-3.34A3.264,3.264,0,0,1,139.8,38.6c2.153,0,2.856,1.758,2.856,3.252,0,.308-.044.571-.044.7Zm2.944-1.186a1.439,1.439,0,0,0-1.362-1.626,1.6,1.6,0,0,0-1.538,1.626Zm4.834-4.526v1.89h1.582v1.274h-1.582V42.95c0,.791.22,1.23.879,1.23a2.381,2.381,0,0,0,.659-.088l.044,1.274a4.074,4.074,0,0,1-1.23.176,2.072,2.072,0,0,1-1.45-.527,2.646,2.646,0,0,1-.527-1.846V40.05h-.967V38.776h.967V37.282Zm5.756-.615h1.67v4.218h.044c.22-.352.439-.7.659-1.011l2.417-3.252h2.065l-3.164,3.911,3.384,5.273h-1.977l-2.593-4.218-.835.967v3.252h-1.67v-9.14Zm11.689,9.184-.088-.747h-.044a2.416,2.416,0,0,1-1.977.879,1.963,1.963,0,0,1-2.065-1.977c0-1.67,1.494-2.5,3.955-2.5v-.088c0-.439-.176-1.142-1.362-1.142a3.914,3.914,0,0,0-1.8.483l-.308-1.1a4.754,4.754,0,0,1,2.417-.571,2.49,2.49,0,0,1,2.724,2.812v2.417a14.777,14.777,0,0,0,.088,1.582Zm-.22-3.252c-1.186-.044-2.329.22-2.329,1.23a.9.9,0,0,0,.967.967,1.405,1.405,0,0,0,1.318-.923,1.092,1.092,0,0,0,.044-.352V42.16Zm3.428-1.186c0-.879-.044-1.582-.044-2.2h1.494l.088,1.011h.044a2.606,2.606,0,0,1,2.285-1.186c1.538,0,2.812,1.318,2.812,3.384,0,2.417-1.494,3.559-3.032,3.559a2.239,2.239,0,0,1-1.89-.879h-.044v3.428h-1.67V40.973h-.044Zm1.67,1.626a1.8,1.8,0,0,0,.044.483,1.509,1.509,0,0,0,1.494,1.186c1.055,0,1.67-.879,1.67-2.2,0-1.186-.571-2.109-1.67-2.109a1.54,1.54,0,0,0-1.494,1.23,1.561,1.561,0,0,0-.088.439V42.6Zm6.328,2.812V38.776h1.67v6.635h-1.67Zm3.384-1.538a3.934,3.934,0,0,0,1.714.483c.747,0,1.055-.308,1.055-.747s-.264-.7-1.1-.967c-1.274-.439-1.846-1.142-1.846-1.933,0-1.186.967-2.065,2.5-2.065a3.712,3.712,0,0,1,1.758.4l-.308,1.186a2.969,2.969,0,0,0-1.406-.4c-.615,0-.923.308-.923.7,0,.439.308.615,1.142.923,1.186.439,1.758,1.055,1.758,2.021,0,1.186-.923,2.065-2.68,2.065a3.928,3.928,0,0,1-2.021-.483l.352-1.186Zm5.756,1.538V38.776h1.67v6.635H183.7Z" transform="translate(-55.828 -20.122)" fill="#333"/>
    <path id="Path_177" data-name="Path 177" d="M307.8,36.227h1.186v4.438h.044c.264-.352.483-.7.7-.967l2.812-3.471h1.494l-3.34,3.911,3.6,5.273H312.9l-3.032-4.526-.879,1.011v3.515H307.8Zm8.788.7a.741.741,0,0,1-.747.747.681.681,0,0,1-.7-.747.715.715,0,0,1,.747-.747A.7.7,0,0,1,316.588,36.93Zm-1.318,8.481V38.82h1.186v6.591Zm3.208-4.834c0-.7,0-1.23-.044-1.8h1.055l.044,1.055h.044a2.267,2.267,0,0,1,2.065-1.23,2,2,0,0,1,1.89,1.318h.044a3.744,3.744,0,0,1,.747-.879,2.217,2.217,0,0,1,1.45-.483c.879,0,2.153.571,2.153,2.856v3.867h-1.186V41.544c0-1.274-.483-2.021-1.45-2.021a1.463,1.463,0,0,0-1.406,1.1,2.593,2.593,0,0,0-.088.615v4.087h-1.186V41.369c0-1.055-.483-1.8-1.362-1.8a1.71,1.71,0,0,0-1.494,1.186,1.3,1.3,0,0,0-.088.571v4h-1.186V40.578ZM329.815,35.7H331v9.667h-1.186Zm4.57,1.23a.741.741,0,0,1-.747.747.681.681,0,0,1-.7-.747.715.715,0,0,1,.747-.747A.732.732,0,0,1,334.385,36.93Zm-1.362,8.481V38.82h1.186v6.591Zm4.394-3.6c.176-.22.439-.527.615-.747l1.933-2.285h1.45L338.867,41.5l2.9,3.867h-1.45L338.032,42.2l-.615.7v2.461h-1.186V35.7h1.186Zm8.129-5.493a20.33,20.33,0,0,1,2.5-.176,5.348,5.348,0,0,1,3.735,1.142,4.142,4.142,0,0,1,1.274,3.3,4.917,4.917,0,0,1-1.318,3.559,5.6,5.6,0,0,1-4.043,1.318c-.835,0-1.538-.044-2.153-.088Zm1.186,8.129a8.759,8.759,0,0,0,1.186.088c2.549,0,3.911-1.406,3.911-3.911,0-2.153-1.23-3.559-3.735-3.559a5.6,5.6,0,0,0-1.406.132v7.25Zm13.886-2.417a3.215,3.215,0,0,1-3.3,3.515,3.131,3.131,0,0,1-3.164-3.384,3.237,3.237,0,0,1,3.252-3.515A3.117,3.117,0,0,1,360.619,42.028Zm-5.229.088c0,1.45.835,2.549,2.021,2.549a2.287,2.287,0,0,0,2.021-2.549c0-1.1-.571-2.549-1.977-2.549S355.39,40.841,355.39,42.116Zm12.436-3.3c-.044.483-.044,1.011-.044,1.8v3.823a3.967,3.967,0,0,1-.923,3.032,3.491,3.491,0,0,1-2.417.791,4.281,4.281,0,0,1-2.2-.527l.308-.923a3.753,3.753,0,0,0,1.933.527c1.23,0,2.109-.659,2.109-2.285v-.747h-.044a2.36,2.36,0,0,1-2.109,1.1,2.964,2.964,0,0,1-2.812-3.208c0-2.241,1.45-3.515,2.988-3.515a2.266,2.266,0,0,1,2.065,1.143h.044l.044-1.011Zm-1.23,2.593a.951.951,0,0,0-.088-.527,1.712,1.712,0,0,0-1.67-1.274c-1.142,0-1.977.967-1.977,2.5,0,1.274.659,2.373,1.933,2.373a1.781,1.781,0,0,0,1.67-1.23,1.708,1.708,0,0,0,.088-.659V41.412ZM363.87,36.1a1,1,0,0,0,.967.923.937.937,0,0,0,.967-.923h.7a1.67,1.67,0,0,1-3.34,0Zm5.8,4.746c0-.791,0-1.45-.044-2.065h1.055l.044,1.274h.044a1.994,1.994,0,0,1,1.846-1.45.967.967,0,0,1,.351.044v1.143a1.216,1.216,0,0,0-.4-.044,1.732,1.732,0,0,0-1.626,1.538,2.32,2.32,0,0,0-.044.571v3.515h-1.186Zm9.975,2.768c0,.7,0,1.274.044,1.8h-1.055l-.088-1.1H378.5a2.5,2.5,0,0,1-2.2,1.23c-1.055,0-2.285-.571-2.285-2.9V38.776h1.186v3.647c0,1.274.4,2.109,1.494,2.109a1.766,1.766,0,0,0,1.582-1.1,1.4,1.4,0,0,0,.088-.615V38.776h1.186V43.61Zm1.977-7.91h1.186v9.667h-1.186Zm6.9,9.711-.088-.835h-.044a2.434,2.434,0,0,1-2.021.967,1.883,1.883,0,0,1-2.021-1.89c0-1.582,1.406-2.461,3.955-2.461v-.132a1.363,1.363,0,0,0-1.494-1.538,3.135,3.135,0,0,0-1.714.483l-.264-.791a4.011,4.011,0,0,1,2.153-.571c2.021,0,2.5,1.362,2.5,2.68v2.461c0,.571.044,1.143.088,1.582h-1.055Zm-.176-3.384c-1.318-.044-2.812.22-2.812,1.494a1.06,1.06,0,0,0,1.142,1.143,1.573,1.573,0,0,0,1.582-1.1,1.282,1.282,0,0,0,.088-.4V42.028Zm3.076-1.45c0-.7,0-1.23-.044-1.8h1.055l.044,1.055h.044a2.267,2.267,0,0,1,2.065-1.23,2,2,0,0,1,1.889,1.318h.044a3.745,3.745,0,0,1,.747-.879,2.218,2.218,0,0,1,1.45-.483c.879,0,2.153.571,2.153,2.856v3.867h-1.186V41.544c0-1.274-.483-2.021-1.45-2.021a1.463,1.463,0,0,0-1.406,1.1,2.592,2.592,0,0,0-.088.615v4.087h-1.186V41.369c0-1.055-.483-1.8-1.362-1.8a1.71,1.71,0,0,0-1.494,1.186,1.3,1.3,0,0,0-.088.571v4h-1.186Zm15.028,4.834-.088-.835h-.044a2.434,2.434,0,0,1-2.021.967,1.883,1.883,0,0,1-2.021-1.89c0-1.582,1.406-2.461,3.955-2.461v-.132a1.363,1.363,0,0,0-1.494-1.538,3.135,3.135,0,0,0-1.714.483l-.264-.791a4.011,4.011,0,0,1,2.153-.571c2.021,0,2.5,1.362,2.5,2.68v2.461c0,.571.044,1.143.088,1.582h-1.055v.044Zm-.176-3.384c-1.318-.044-2.812.22-2.812,1.494a1.06,1.06,0,0,0,1.142,1.143,1.573,1.573,0,0,0,1.582-1.1,1.284,1.284,0,0,0,.088-.4Zm5.844,1.933a4.415,4.415,0,0,0,2.109.615c1.23,0,1.933-.659,1.933-1.582,0-.879-.483-1.362-1.714-1.846-1.494-.527-2.417-1.318-2.417-2.593,0-1.45,1.186-2.5,2.988-2.5a4.3,4.3,0,0,1,2.021.439l-.308.967a3.589,3.589,0,0,0-1.758-.439c-1.274,0-1.714.747-1.714,1.362,0,.879.571,1.274,1.846,1.758,1.538.615,2.329,1.362,2.329,2.68,0,1.406-1.055,2.637-3.208,2.637a4.907,4.907,0,0,1-2.329-.571l.22-.923Zm8.217-7.031a.741.741,0,0,1-.747.747.681.681,0,0,1-.7-.747.715.715,0,0,1,.747-.747A.732.732,0,0,1,420.336,36.93Zm-1.362,8.481V38.82h1.186v6.591Zm3.032-1.23a3.207,3.207,0,0,0,1.582.483c.879,0,1.274-.439,1.274-.967,0-.571-.352-.879-1.23-1.23-1.186-.439-1.758-1.1-1.758-1.89a2.053,2.053,0,0,1,2.285-1.933,3.276,3.276,0,0,1,1.626.4l-.308.879a2.507,2.507,0,0,0-1.362-.4c-.7,0-1.1.4-1.1.879,0,.527.4.791,1.274,1.1,1.142.439,1.714,1.011,1.714,1.977,0,1.143-.879,1.977-2.461,1.977a3.816,3.816,0,0,1-1.846-.439l.308-.835Zm7.031-7.294v1.89h1.714V39.7h-1.714v3.559c0,.835.22,1.274.879,1.274a2.753,2.753,0,0,0,.7-.088l.044.879a3.064,3.064,0,0,1-1.055.176,1.622,1.622,0,0,1-1.274-.483,2.355,2.355,0,0,1-.483-1.714V39.7H426.84v-.923h1.011V37.194l1.186-.308Zm3.647,5.449a2.117,2.117,0,0,0,2.285,2.285,4.038,4.038,0,0,0,1.846-.352l.22.879a5.729,5.729,0,0,1-2.2.4,3.07,3.07,0,0,1-3.252-3.34c0-1.977,1.186-3.559,3.076-3.559,2.153,0,2.724,1.89,2.724,3.12,0,.264-.044.439-.044.571Zm3.515-.879a1.708,1.708,0,0,0-1.67-1.933,1.957,1.957,0,0,0-1.846,1.933Zm2.637-.879c0-.7,0-1.23-.044-1.8h1.055l.044,1.055h.044A2.267,2.267,0,0,1,442,38.6a2,2,0,0,1,1.89,1.318h.044a3.747,3.747,0,0,1,.747-.879,2.218,2.218,0,0,1,1.45-.483c.879,0,2.153.571,2.153,2.856v3.867H447.1V41.544c0-1.274-.483-2.021-1.45-2.021a1.463,1.463,0,0,0-1.406,1.1,2.592,2.592,0,0,0-.088.615v4.087h-1.186V41.369c0-1.055-.483-1.8-1.362-1.8a1.71,1.71,0,0,0-1.494,1.186,1.3,1.3,0,0,0-.088.571v4h-1.186Zm12.7-3.647a.741.741,0,0,1-.747.747.681.681,0,0,1-.7-.747.715.715,0,0,1,.747-.747A.7.7,0,0,1,451.535,36.93Zm-1.318,8.481V38.82H451.4v6.591Z" transform="translate(-173.381 -20.122)" fill="#4d4d4d"/>
  </g>
</svg>
