<svg xmlns="http://www.w3.org/2000/svg" width="122.074" height="98.068" viewBox="0 0 122.074 98.068">
  <g id="ekampus-logo" transform="translate(0.008)">
    <path id="Path_904" data-name="Path 904" d="M51.79,51.6a3.139,3.139,0,0,0-.14.47c-.35,1.31-.65,2.58-.9,3.82a2.61,2.61,0,0,0-.08.47v.09c0,.66.42,1,1,.67l6-3.06a3.51,3.51,0,0,0,1.66-2.18v-.15q.48-2.08,1.14-4.14a.85.85,0,0,0,.07-.21,1.65,1.65,0,0,0,.06-.43c0-.67-.49-.93-1.1-.59l-6.2,3.39a3.47,3.47,0,0,0-1.48,1.77" transform="translate(-5.34 -3.88)" fill="#a52733"/>
    <path id="Path_905" data-name="Path 905" d="M59.54,66.16l63.53-27.91c.32-.15,3.19-1.52,2.91-4.14a24.4,24.4,0,0,0-.68-3.48A37.769,37.769,0,0,0,123,24C114.46,5.37,94.17,3.43,77.28,14.71c-1.25.83-2.46,1.72-3.65,2.67l-1.48,5.53a5,5,0,0,1-2.65,2.88l-6.88,3.1a71.08,71.08,0,0,0-8.69,15.4,1.38,1.38,0,0,0-.08.2,4.49,4.49,0,0,0-.26,1c0,.88.72,1,1.43.6l.11-.06,5.73-3.26.15-.08.12-.07a5.14,5.14,0,0,0,1.61-1.72,5.32,5.32,0,0,0,.29-.59C66.75,33,71.92,27,77.89,23.34c10.85-6.73,22.78-4.74,28.55,6.75a2.24,2.24,0,0,1,.19.55c.23,1.31-1,2.49-1.85,3L51,60.37A3.34,3.34,0,0,0,49.28,63c-.1,1-.13,1.77-.16,2.6-.06,1.84,0,3.67.08,5.46,1.31,19.7,14.8,34.23,34.3,30.22,16-3.28,33.39-17.77,40.94-38l.13-.34a2.58,2.58,0,0,0,.06-1.32c-.31-1.45-1.9-2.16-3.6-1.64l-.35.12-11.79,3.49a5.76,5.76,0,0,0-2.68,2.24,5.41,5.41,0,0,0-.43.83c-5.37,10.18-15.11,17.73-23.33,20C70.14,90.14,60.58,82.14,58.18,69a3.27,3.27,0,0,1,0-.54,2.69,2.69,0,0,1,1.36-2.3Z" transform="translate(-5.34 -3.88)" fill="#a52733"/>
    <path id="Path_906" data-name="Path 906" d="M73.63,17.38h0c-4.71,2.91-11,11.52-11,11.52h0a62.78,62.78,0,0,1,11-11.52Z" transform="translate(-5.34 -3.88)" fill="#fff"/>
    <path id="Path_907" data-name="Path 907" d="M72.15,22.91l1.48-5.53a62.78,62.78,0,0,0-11,11.51l6.88-3.1A5,5,0,0,0,72.15,22.91Z" transform="translate(-5.34 -3.88)" fill="#fff"/>
    <path id="Path_908" data-name="Path 908" d="M39.36,20.38q-1.5-.3-4.49,1.19a19.34,19.34,0,0,0-6,4.42,16.89,16.89,0,0,0-3.28,5.35l4.8-1.76a8.66,8.66,0,0,1,1.42-2.5,5.73,5.73,0,0,1,1.75-1.37c.59-.28,1-.36,1.21-.24s.24.43.1.92a6.51,6.51,0,0,1-1.57,2.1C31.62,30.22,30.54,31.38,30,32a11.94,11.94,0,0,0-1.27,1.81,10,10,0,0,0-.88,2.13l-.15.48,5-2.25a6.5,6.5,0,0,1,.85-1.8,20.22,20.22,0,0,1,2.24-2.48,35.931,35.931,0,0,0,3.44-3.81,9,9,0,0,0,1.33-2.52C41.14,21.7,40.73,20.64,39.36,20.38ZM29.65,36.9a6.63,6.63,0,0,0-3.31,3.53c-.39,1.29.45,1.85,1.89,1.23a6.61,6.61,0,0,0,3.36-3.54C32,36.79,31.12,36.25,29.65,36.9Z" transform="translate(-5.34 -3.88)" fill="#a52733"/>
    <path id="Path_909" data-name="Path 909" d="M124.42,40.83,110.6,46.65a2.29,2.29,0,0,0-1.34,1.68l-2.07,10.32a1.9,1.9,0,0,0,2.42,2.21l14.27-4.61a2.49,2.49,0,0,0,1.68-1.93l1.76-11.17a2,2,0,0,0-2.9-2.32Zm-4.11,8.09-5.65,4.49a.57.57,0,0,1-.92-.54l.74-4.49a.59.59,0,0,1,.57-.49H120a.58.58,0,0,1,.31,1.03Z" transform="translate(-5.34 -3.88)" fill="#a52733"/>
    <path id="Path_910" data-name="Path 910" d="M120,47.89h-4.9a.59.59,0,0,0-.57.49l-.74,4.49a.57.57,0,0,0,.92.54l5.65-4.49a.58.58,0,0,0-.36-1.03Z" transform="translate(-5.34 -3.88)" fill="#f9f9f9"/>
    <path id="Path_911" data-name="Path 911" d="M57.67,20.22a7.45,7.45,0,0,1,3.17-3.79" transform="translate(-5.34 -3.88)" fill="#fff"/>
    <path id="Path_912" data-name="Path 912" d="M74,4.15,72.17,5.34l-.61-1.46s-9.43,4.18-11.09,7.05c-.12-2.1-9.11,2.33-9.11,2.34L50,14.73l-1,.11-6,20L54.59,29.7a7.26,7.26,0,0,1,1-.53l1.23-.48h0l.24-.09.36-.22L69.79,23,73.15,7h0Z" transform="translate(-5.34 -3.88)" fill="#a52733" fill-rule="evenodd"/>
    <path id="Path_913" data-name="Path 913" d="M64.05,1.02,60.9,15.98l-8.03,6.29-.63,2.22,9.98-7.78L65.75.21Z" fill="#f9f7f7" fill-rule="evenodd"/>
    <path id="Path_914" data-name="Path 914" d="M58.8,14.86s-3.08-.76-7.94,2.26l-.17.7s5.12-3.15,8-2.28Z" transform="translate(-5.34 -3.88)" fill="#f9f7f7" fill-rule="evenodd"/>
    <path id="Path_915" data-name="Path 915" d="M57.63,19.14s-3.08-.76-7.94,2.26l-.17.71s5.12-3.16,7.95-2.29Z" transform="translate(-5.34 -3.88)" fill="#f9f7f7" fill-rule="evenodd"/>
    <path id="Path_916" data-name="Path 916" d="M56.5,23.43s-3.09-.76-7.94,2.25l-.18.71s5.13-3.15,7.95-2.28Z" transform="translate(-5.34 -3.88)" fill="#f9f7f7" fill-rule="evenodd"/>
    <path id="Path_292" data-name="Path 292" d="M16.3,30.81l-2.94,8.37a5.53,5.53,0,0,0-1.48.41,12.89,12.89,0,0,0-6.21,6.13c-1,2.43.29,3.66,2.92,2.67a12.85,12.85,0,0,0,6.38-6h.06l3.49-10.22,2.41-1.08.8-2.79Z" transform="translate(-5.34 -3.88)" fill="#a52733"/>
    <path id="Path_917" data-name="Path 917" d="M43.07,41.49c-4.48.2-11,4.35-14.45,9.46-3.6,5.35-2.05,9.1,3.23,8.22a33.362,33.362,0,0,0,4.42-1.67l3.63,3.63,1-6.61a22.39,22.39,0,0,0,4.77-5.39C48.36,44.65,47.26,41.3,43.07,41.49ZM34.33,51.2A4.45,4.45,0,0,1,32.46,53c-.61.22-.75-.22-.32-1A4.35,4.35,0,0,1,34,50.22C34.61,50,34.75,50.45,34.33,51.2Zm4-1.46a4.1,4.1,0,0,1-1.76,1.71c-.58.22-.71-.22-.3-1a4.11,4.11,0,0,1,1.77-1.71c.59-.16.72.26.32,1Zm3.81-1.37A3.85,3.85,0,0,1,40.5,50c-.54.2-.67-.22-.28-.94a4,4,0,0,1,1.68-1.64c.53-.18.65.24.27.95Z" transform="translate(-5.34 -3.88)" fill="#a52733"/>
    <path id="Path_918" data-name="Path 918" d="M41.9,47.43a4,4,0,0,0-1.68,1.64c-.39.72-.26,1.14.28.94a3.85,3.85,0,0,0,1.67-1.64C42.55,47.66,42.43,47.24,41.9,47.43Z" transform="translate(-5.34 -3.88)" fill="#fff"/>
    <path id="Path_919" data-name="Path 919" d="M38.07,48.78a4.11,4.11,0,0,0-1.77,1.71c-.41.74-.28,1.18.3,1a4.1,4.1,0,0,0,1.76-1.71C38.76,49,38.63,48.58,38.07,48.78Z" transform="translate(-5.34 -3.88)" fill="#fff"/>
    <path id="Path_920" data-name="Path 920" d="M34,50.22A4.35,4.35,0,0,0,32.14,52c-.43.77-.29,1.21.32,1a4.45,4.45,0,0,0,1.87-1.78C34.75,50.45,34.61,50,34,50.22Z" transform="translate(-5.34 -3.88)" fill="#fff"/>
  </g>
</svg>
