<svg xmlns="http://www.w3.org/2000/svg" width="189.516" height="100.428" viewBox="0 0 189.516 100.428">
  <g id="Group_1226" data-name="Group 1226" transform="translate(-147.301 -49.707)">
    <path id="Path_862" data-name="Path 862" d="M189.27,76.229a82.776,82.776,0,0,1-2.54,11.313,12.719,12.719,0,0,1-2.151,4.393,8.145,8.145,0,0,0-1.7,3,18.538,18.538,0,0,0-.823,6l-10.876-8.613S167.9,81.486,168.187,79.4c.413-3.038-.707-8.534-.563-9.75.106-.9-.184-5.281-.181-5.609,0-.143.28-.451.727-.6a1.37,1.37,0,0,1,1.471.693,12.682,12.682,0,0,1,1.847,6.134c1.185,2.68,1.034,5.008,1.789,5.363.027.014.065-.01.109-.065.792-.973,4.038-12.078,4.742-12.525C178.869,62.577,189.27,76.229,189.27,76.229Z" transform="translate(48.617 32.174)" fill="#efa26f"/>
    <path id="Path_863" data-name="Path 863" d="M172.936,77.8s-1.922-4.182-2.659-4.882a4.519,4.519,0,0,1-1.389-3.758,12.8,12.8,0,0,0-.259-4c1.185,2.68,1.034,5.008,1.789,5.363.027.014.065-.01.109-.065Z" transform="translate(51.477 37.292)" fill="#d38254"/>
    <path id="Path_531" data-name="Path 531" d="M186.237,62.717l14.286-7.51-2.734,15.908,11.555,11.262L193.375,84.7l-7.142,14.471L179.092,84.7l-15.973-2.321,11.559-11.262-2.734-15.908Z" transform="translate(38.18 13.275)" fill="#f9bd16"/>
    <g id="Group_1218" data-name="Group 1218" transform="translate(215.91 95.736)">
      <path id="Path_864" data-name="Path 864" d="M182.836,94.711a6.4,6.4,0,0,1-3.622,3.789l-8.077-6.4s-3.277-10.832-2.994-12.918c.413-3.038-.707-8.534-.563-9.746.106-.9-.184-5.281-.181-5.612,0-.14.28-.451.727-.6a1.375,1.375,0,0,1,1.471.693,12.688,12.688,0,0,1,1.847,6.138c1.185,2.68,1.034,5,1.789,5.36.027.014.065-.007.109-.061" transform="translate(-167.399 -63.19)" fill="#efa26f"/>
      <path id="Path_865" data-name="Path 865" d="M167.4,63.435l.191,2.571a1.3,1.3,0,0,0,.86-.229C168.728,65.5,168.3,63.282,167.4,63.435Z" transform="translate(-167.397 -62.618)" fill="#ffc197"/>
      <path id="Path_866" data-name="Path 866" d="M172.892,77.84s-1.922-4.182-2.659-4.878a4.522,4.522,0,0,1-1.389-3.762,12.775,12.775,0,0,0-.259-4c1.185,2.68,1.034,5,1.789,5.36.027.014.065-.007.109-.061Z" transform="translate(-164.539 -58.335)" fill="#d38254"/>
    </g>
    <path id="Path_867" data-name="Path 867" d="M178.773,70.215a12.719,12.719,0,0,1-2.151,4.393,8.145,8.145,0,0,0-1.7,3c-.884-.106-1.895-.239-2.885-.372a1.5,1.5,0,0,1-.888-2.509l.024-.027a7.9,7.9,0,0,0,1.12-3.107Z" transform="translate(56.574 49.501)" fill="#d38254"/>
    <g id="Group_1219" data-name="Group 1219" transform="translate(217.443 124.106)">
      <path id="Path_868" data-name="Path 868" d="M181.993,75.032s1.533,13.242,3.407,19.919H168.079c1.263-10.313,1.4-21.343,1.4-21.343S180.02,70.5,181.993,75.032Z" transform="translate(-167.29 -68.922)" fill="#2b478b"/>
      <path id="Path_869" data-name="Path 869" d="M168.321,78.172a41.281,41.281,0,0,0,7.558,2.792l1.4-1.9.628,1.915s3.806-.543,4.731-1.553l-1.71-5.216-11.764-1.755Z" transform="translate(-166.706 -69.193)" fill="#0c1d3f"/>
      <path id="Path_870" data-name="Path 870" d="M170.077,71.5s-1.161,4.151-2.229,8.531c0,0,5.841,1.717,8.739,1.833l2.12-4.994,1.048,4.834s3.356.109,4.653-.632c0,0-1.475-4.213-2.386-6.991C182.022,74.082,173.02,74.474,170.077,71.5Z" transform="translate(-167.848 -71.501)" fill="#f3f8ff"/>
      <path id="Path_871" data-name="Path 871" d="M169.514,74.524a.594.594,0,1,1,.748.386A.594.594,0,0,1,169.514,74.524Z" transform="translate(-163.895 -66.068)" fill="#2b478b"/>
    </g>
    <path id="Path_872" data-name="Path 872" d="M216.1,76.229a82.194,82.194,0,0,1-2.54,11.313,12.718,12.718,0,0,1-2.151,4.393,8.091,8.091,0,0,0-1.7,3,18.6,18.6,0,0,0-.826,6l-10.876-8.613s-3.274-10.835-2.99-12.918c.413-3.038-.71-8.534-.567-9.75.106-.9-.181-5.281-.181-5.609,0-.143.283-.451.731-.6a1.366,1.366,0,0,1,1.468.693,12.758,12.758,0,0,1,1.85,6.134c1.181,2.68,1.031,5.008,1.789,5.363.027.014.065-.01.109-.065.789-.973,4.038-12.078,4.738-12.525C205.7,62.577,216.1,76.229,216.1,76.229Z" transform="translate(113.38 32.174)" fill="#efa26f"/>
    <path id="Path_873" data-name="Path 873" d="M199.765,77.8s-1.922-4.182-2.659-4.882a4.519,4.519,0,0,1-1.389-3.758,12.841,12.841,0,0,0-.256-4c1.181,2.68,1.031,5.008,1.789,5.363.027.014.065-.01.109-.065Z" transform="translate(116.242 37.292)" fill="#d38254"/>
    <path id="Path_531-2" data-name="Path 531" d="M212.394,61.792l14.283-7.507-2.731,15.9L235.5,81.455l-15.969,2.321-7.145,14.471-7.142-14.471-15.969-2.321L200.831,70.19l-2.731-15.9Z" transform="translate(101.316 11.05)" fill="#f9bd16"/>
    <g id="Group_1220" data-name="Group 1220" transform="translate(307.504 95.736)">
      <path id="Path_874" data-name="Path 874" d="M209.67,94.711a6.4,6.4,0,0,1-3.622,3.789l-8.08-6.4s-3.274-10.832-2.99-12.918c.413-3.038-.71-8.534-.567-9.746.106-.9-.181-5.281-.181-5.612,0-.14.283-.451.731-.6a1.371,1.371,0,0,1,1.468.693,12.764,12.764,0,0,1,1.85,6.138c1.181,2.68,1.031,5,1.789,5.36.027.014.065-.007.109-.061" transform="translate(-194.23 -63.19)" fill="#efa26f"/>
      <path id="Path_875" data-name="Path 875" d="M194.231,63.435l.191,2.571a1.313,1.313,0,0,0,.864-.229C195.562,65.5,195.132,63.282,194.231,63.435Z" transform="translate(-194.228 -62.618)" fill="#ffc197"/>
      <path id="Path_876" data-name="Path 876" d="M199.721,77.84s-1.922-4.182-2.659-4.878a4.522,4.522,0,0,1-1.389-3.762,12.814,12.814,0,0,0-.256-4c1.181,2.68,1.031,5,1.789,5.36.027.014.065-.007.109-.061Z" transform="translate(-191.367 -58.335)" fill="#d38254"/>
    </g>
    <path id="Path_877" data-name="Path 877" d="M205.6,70.215a12.718,12.718,0,0,1-2.151,4.393,8.091,8.091,0,0,0-1.7,3c-.884-.106-1.895-.239-2.885-.372a1.5,1.5,0,0,1-.891-2.509L198,74.7a7.893,7.893,0,0,0,1.12-3.107Z" transform="translate(121.338 49.501)" fill="#d38254"/>
    <g id="Group_1221" data-name="Group 1221" transform="translate(309.036 124.106)">
      <path id="Path_878" data-name="Path 878" d="M208.825,75.032s1.533,13.242,3.407,19.919H194.911c1.26-10.313,1.393-21.343,1.393-21.343S206.849,70.5,208.825,75.032Z" transform="translate(-194.119 -68.922)" fill="#aec3ff"/>
      <path id="Path_879" data-name="Path 879" d="M195.152,78.172a41.283,41.283,0,0,0,7.558,2.792l1.4-1.9.628,1.915s3.806-.543,4.731-1.553l-1.71-5.216L196,72.457Z" transform="translate(-193.537 -69.193)" fill="#8498d3"/>
      <path id="Path_880" data-name="Path 880" d="M196.908,71.5s-1.161,4.151-2.229,8.531c0,0,5.841,1.717,8.743,1.833l2.116-4.994,1.048,4.834s3.359.109,4.656-.632c0,0-1.478-4.213-2.386-6.991C208.856,74.082,199.851,74.474,196.908,71.5Z" transform="translate(-194.679 -71.501)" fill="#f3f8ff"/>
      <path id="Path_881" data-name="Path 881" d="M196.346,74.524a.593.593,0,1,1,.744.386A.592.592,0,0,1,196.346,74.524Z" transform="translate(-190.723 -66.068)" fill="#8498d3"/>
    </g>
    <path id="Path_882" data-name="Path 882" d="M180.217,70.825a82.313,82.313,0,0,0,2.54,11.313,12.729,12.729,0,0,0,2.151,4.39,8.145,8.145,0,0,1,1.7,3,18.666,18.666,0,0,1,.823,6l10.876-8.616S201.583,76.082,201.3,74c-.417-3.038.707-8.534.563-9.75-.106-.9.181-5.278.181-5.609,0-.14-.283-.451-.731-.6a1.371,1.371,0,0,0-1.468.693A12.764,12.764,0,0,0,198,64.868c-1.181,2.683-1.031,5.008-1.785,5.363-.031.014-.065-.01-.113-.065-.789-.969-4.038-12.078-4.738-12.525C190.615,57.17,180.217,70.825,180.217,70.825Z" transform="translate(79.45 19.123)" fill="#efa26f"/>
    <path id="Path_883" data-name="Path 883" d="M184.164,72.391s1.922-4.182,2.659-4.878a4.526,4.526,0,0,0,1.389-3.762,12.84,12.84,0,0,1,.256-4c-1.181,2.683-1.031,5.008-1.785,5.363-.031.014-.065-.01-.113-.065Z" transform="translate(88.977 24.241)" fill="#d38254"/>
    <path id="Path_531-3" data-name="Path 531" d="M215.469,49.707l-2.731,15.9,11.555,11.265L208.324,79.2l-7.141,14.471L194.037,79.2l-15.969-2.321,11.555-11.265-2.731-15.9,14.283,7.51Z" transform="translate(74.263 0)" fill="#f9bd16"/>
    <g id="Group_1222" data-name="Group 1222" transform="translate(266.208 77.279)">
      <path id="Path_884" data-name="Path 884" d="M182.133,89.306a6.374,6.374,0,0,0,3.619,3.786l8.08-6.4s3.274-10.832,2.99-12.918c-.413-3.035.71-8.531.567-9.746-.106-.9.181-5.281.181-5.609,0-.143-.283-.454-.731-.6a1.362,1.362,0,0,0-1.468.69,12.773,12.773,0,0,0-1.85,6.138c-1.181,2.68-1.031,5.008-1.785,5.363-.031.01-.068-.01-.113-.065" transform="translate(-182.133 -57.784)" fill="#efa26f"/>
      <path id="Path_885" data-name="Path 885" d="M187.457,58.028l-.191,2.574a1.311,1.311,0,0,1-.86-.232C186.126,60.1,186.556,57.878,187.457,58.028Z" transform="translate(-172.024 -57.212)" fill="#ffc197"/>
      <path id="Path_886" data-name="Path 886" d="M184.208,72.436s1.922-4.185,2.659-4.882a4.519,4.519,0,0,0,1.389-3.759,12.83,12.83,0,0,1,.256-4c-1.181,2.68-1.031,5.008-1.785,5.363-.031.01-.068-.01-.113-.065Z" transform="translate(-177.125 -52.93)" fill="#d38254"/>
    </g>
    <path id="Path_887" data-name="Path 887" d="M180.961,64.809a12.729,12.729,0,0,0,2.151,4.39,8.145,8.145,0,0,1,1.7,3c.881-.106,1.891-.239,2.881-.372a1.5,1.5,0,0,0,.891-2.509l-.024-.027a7.894,7.894,0,0,1-1.12-3.106Z" transform="translate(81.246 36.452)" fill="#d38254"/>
    <g id="Group_1223" data-name="Group 1223" transform="translate(261.999 105.648)">
      <path id="Path_888" data-name="Path 888" d="M184.307,69.624s-1.533,31.7-3.407,38.377h17.321c-1.26-10.313-1.393-39.8-1.393-39.8S186.283,65.1,184.307,69.624Z" transform="translate(-180.9 -63.514)" fill="#aec3ff"/>
      <path id="Path_889" data-name="Path 889" d="M195.859,72.768a41.365,41.365,0,0,1-7.558,2.789l-1.4-1.9-.628,1.915s-3.806-.543-4.731-1.55l1.71-5.22,11.764-1.755Z" transform="translate(-179.36 -63.786)" fill="#8498d3"/>
      <path id="Path_890" data-name="Path 890" d="M195.688,66.094s1.161,4.151,2.229,8.534c0,0-5.841,1.714-8.742,1.83l-2.117-4.994L186.01,76.3s-3.356.109-4.656-.632c0,0,1.478-4.213,2.386-6.988C183.74,68.678,192.746,69.067,195.688,66.094Z" transform="translate(-179.804 -66.094)" fill="#f3f8ff"/>
      <path id="Path_891" data-name="Path 891" d="M185.378,69.117a.593.593,0,1,0-1.13-.358.593.593,0,1,0,1.13.358Z" transform="translate(-172.887 -60.661)" fill="#8498d3"/>
    </g>
    <path id="Path_892" data-name="Path 892" d="M149.931,76.229a82.2,82.2,0,0,0,2.54,11.313,12.661,12.661,0,0,0,2.147,4.393,8.145,8.145,0,0,1,1.7,3,18.6,18.6,0,0,1,.826,6l10.873-8.613s3.277-10.835,2.994-12.918c-.413-3.038.71-8.534.567-9.75-.106-.9.181-5.281.178-5.609,0-.143-.28-.451-.727-.6a1.372,1.372,0,0,0-1.471.693,12.726,12.726,0,0,0-1.847,6.134c-1.181,2.68-1.031,5.008-1.789,5.363-.027.014-.065-.01-.109-.065-.792-.973-4.038-12.078-4.742-12.525C160.329,62.577,149.931,76.229,149.931,76.229Z" transform="translate(6.348 32.174)" fill="#efa26f"/>
    <path id="Path_893" data-name="Path 893" d="M153.877,77.8s1.925-4.182,2.663-4.882a4.53,4.53,0,0,0,1.389-3.758,12.84,12.84,0,0,1,.256-4c-1.181,2.68-1.031,5.008-1.789,5.363-.027.014-.065-.01-.109-.065Z" transform="translate(15.873 37.292)" fill="#d38254"/>
    <path id="Path_531-4" data-name="Path 531" d="M184.7,56.146l-2.731,15.9,11.555,11.265-15.969,2.321-7.141,14.471L163.27,85.637,147.3,83.316l11.555-11.265-2.731-15.9,14.283,7.51Z" transform="translate(0 15.542)" fill="#f9bd16"/>
    <g id="Group_1224" data-name="Group 1224" transform="translate(162.816 95.736)">
      <path id="Path_894" data-name="Path 894" d="M151.846,94.711a6.4,6.4,0,0,0,3.622,3.789l8.077-6.4s3.277-10.832,2.994-12.918c-.413-3.038.71-8.534.567-9.746-.109-.9.181-5.281.177-5.612,0-.14-.28-.451-.727-.6a1.377,1.377,0,0,0-1.471.693,12.688,12.688,0,0,0-1.847,6.138c-1.181,2.68-1.031,5-1.789,5.36-.027.014-.065-.007-.109-.061" transform="translate(-151.846 -63.19)" fill="#efa26f"/>
      <path id="Path_895" data-name="Path 895" d="M157.169,63.435l-.191,2.571a1.3,1.3,0,0,1-.86-.229C155.841,65.5,156.271,63.282,157.169,63.435Z" transform="translate(-141.736 -62.618)" fill="#ffc197"/>
      <path id="Path_896" data-name="Path 896" d="M153.921,77.84s1.925-4.182,2.663-4.878A4.521,4.521,0,0,0,157.97,69.2a12.886,12.886,0,0,1,.259-4c-1.181,2.68-1.031,5-1.789,5.36-.027.014-.065-.007-.109-.061Z" transform="translate(-146.837 -58.335)" fill="#d38254"/>
    </g>
    <path id="Path_897" data-name="Path 897" d="M150.675,70.215a12.661,12.661,0,0,0,2.147,4.393,8.145,8.145,0,0,1,1.7,3c.884-.106,1.895-.239,2.885-.372a1.5,1.5,0,0,0,.891-2.509l-.024-.027a7.917,7.917,0,0,1-1.123-3.107Z" transform="translate(8.144 49.501)" fill="#d38254"/>
    <g id="Group_1225" data-name="Group 1225" transform="translate(158.611 124.106)">
      <path id="Path_898" data-name="Path 898" d="M154.021,75.032s-1.533,13.242-3.407,19.919h17.321c-1.263-10.313-1.393-21.343-1.393-21.343S156,70.5,154.021,75.032Z" transform="translate(-150.614 -68.922)" fill="#2b478b"/>
      <path id="Path_899" data-name="Path 899" d="M165.573,78.172a41.389,41.389,0,0,1-7.558,2.792l-1.406-1.9-.625,1.915s-3.806-.543-4.731-1.553l1.71-5.216,11.764-1.755Z" transform="translate(-149.074 -69.193)" fill="#0c1d3f"/>
      <path id="Path_900" data-name="Path 900" d="M165.4,71.5s1.157,4.151,2.226,8.531c0,0-5.841,1.717-8.739,1.833l-2.116-4.994L155.724,81.7s-3.359.109-4.656-.632c0,0,1.478-4.213,2.386-6.991C153.454,74.082,162.46,74.474,165.4,71.5Z" transform="translate(-149.518 -71.501)" fill="#f3f8ff"/>
      <path id="Path_901" data-name="Path 901" d="M155.093,74.524a.593.593,0,1,0-.744.386A.592.592,0,0,0,155.093,74.524Z" transform="translate(-142.602 -66.068)" fill="#2b478b"/>
    </g>
  </g>
</svg>
